<svg viewBox="0 0 223.91 125.44" xmlns="http://www.w3.org/2000/svg" xmlns:xlink="http://www.w3.org/1999/xlink" id="Layer_1" overflow="hidden"><defs><linearGradient x1="16.51" y1="-11.16" x2="143.11" y2="83.9" gradientUnits="userSpaceOnUse" id="linear-gradient"><stop offset="0" stop-color="#FFFFFF"/><stop offset="0.09" stop-color="#EAEED8"/><stop offset="0.38" stop-color="#AEBE67"/><stop offset="0.51" stop-color="#96AB3B"/></linearGradient></defs><g><rect x="0" y="8.97" rx="54.66" ry="54.66" width="220.15" height="116.47" fill="#231F20" opacity="0.56"/><rect x="3.26" y="0.5" rx="54.66" ry="54.66" width="220.15" height="116.47" stroke="#2A4C24" stroke-miterlimit="10" fill="#96AB3B"/><path d="M178.43 4.21C124.78 7.21 81.88 12.86 53.65 42.33 35.52 61.26 32.17 83.61 37.59 109.04 17.83 100.57 11.55 84.09 9 76.57 6.02 67.8 1.17 30.98 27.88 13.56 42.37 4.11 52.59 4.74 52.59 4.74 52.59 4.74 133.78 4.21 178.43 4.21Z" fill="url(#linear-gradient)" opacity="0.78"/></g><g><path d="M146.71 75.43 146.58 75.97 146.38 76.58 146.31 76.85 146.24 77.19 146.04 78 145.91 78.67 145.71 79.48C145.53 79.93 145.4 80.4 145.31 80.9 145.31 80.95 145.27 81.13 145.18 81.44L145.05 81.91 144.85 82.52C144.81 82.92 144.67 83.37 144.45 83.87 144.27 84.59 144 85.22 143.64 85.76 143.37 86.16 143.06 86.55 142.7 86.91 142.34 87.18 142.03 87.34 141.76 87.38 141.49 87.51 141.2 87.58 140.88 87.58L140.14 87.51C140.14 87.42 140.12 87.38 140.07 87.38 139.94 87.38 139.84 87.36 139.8 87.31 139.84 87.31 139.82 87.29 139.73 87.24 139.64 87.24 139.5 87.22 139.33 87.17L135.89 86.02 135.55 85.89 135.15 85.82 134.61 85.69 134.14 85.56 133.8 85.43C133.49 85.39 133.26 85.32 133.13 85.23 132.55 85.14 132.01 85.01 131.51 84.83 130.93 84.65 130.3 84.52 129.62 84.43L127.6 83.89 125.91 83.62C125.6 83.62 125.41 83.6 125.37 83.55L124.16 83.35 120.38 83.28 117.75 83.35 116.47 83.55C115.75 83.55 115.32 83.57 115.19 83.62L113.91 83.82C113.24 83.82 112.83 83.84 112.7 83.89L106.03 85.04C106.03 85.04 105.85 85.11 105.63 85.11L105.16 85.18C104.71 85.18 104.46 85.2 104.42 85.25L102.6 85.65C102.6 85.65 102.44 85.72 102.26 85.72 101.86 85.77 101.45 85.77 101.05 85.72 100.6 85.72 100.29 85.63 100.11 85.45L99.3 84.84 98.63 83.96C98.45 83.6 98.32 83.26 98.23 82.95 98.05 82.73 97.89 82.3 97.76 81.67L96.68 77.09 96.48 76.62 96.35 75.61C96.35 75.61 96.33 75.5 96.28 75.41L96.28 75.21 96.21 75.01 95.87 73.12 95.8 72.72 95.73 72.25 95.66 71.91 95.59 71.64 95.52 69.21C95.52 68.9 95.63 68.63 95.86 68.4 96.04 68.09 96.33 67.82 96.74 67.59L99.77 66.65 100.17 66.58 100.64 66.51 100.98 66.44 101.25 66.37C101.25 66.37 101.41 66.3 101.59 66.3L101.99 66.23 102.39 66.1 104.82 65.36 105.09 65.23 105.36 65.16 105.9 65.03 106.37 64.9 106.64 64.77 106.98 64.7 108.13 64.23 109.14 63.69 110.29 63.22 113.46 61.4 114 61 114.54 60.6 115.48 59.86C115.57 59.82 115.86 59.55 116.36 59.05L116.76 58.65 117.03 58.31 117.3 58.04 120.47 53.99 121.62 51.97 122.02 51.03C122.24 50.76 122.38 50.49 122.42 50.22L122.55 49.75 122.68 49.35 122.88 48.54C122.92 48.45 122.95 48.2 122.95 47.8 122.95 47.4 122.93 47.15 122.88 47.06 122.88 46.79 122.81 46.57 122.68 46.39 122.64 46.26 122.59 46.14 122.55 46.05L122.42 45.92C122.42 45.83 122.4 45.76 122.35 45.72L122.22 45.59 122.09 45.39 121.62 44.92 119.46 44.18 119.19 44.11 118.92 44.04 118.52 43.97 118.12 43.9C117.99 43.86 117.6 43.83 116.97 43.83 116.34 43.83 115.98 43.85 115.89 43.9 115.62 43.9 115.31 43.97 114.95 44.1 114.64 44.15 114.39 44.26 114.21 44.44 113.9 44.49 113.63 44.62 113.4 44.84L112.39 45.65 111.45 46.59 111.11 46.99 110.77 47.39 110.43 47.79 110.23 48.06C109.96 48.42 109.78 48.69 109.69 48.87L109.42 49.21 109.29 49.48C108.84 50.24 108.59 50.67 108.55 50.76L107.61 53.73C107.61 53.73 107.54 53.96 107.54 54.27L107.47 54.61 107.2 54.88 107 55.01C107 55.01 106.89 55.12 106.8 55.21L106.6 55.34 106.33 55.54C106.06 55.72 105.75 55.86 105.39 55.94 104.94 55.99 104.51 55.99 104.11 55.94 103.53 55.85 103.01 55.65 102.56 55.33L101.35 54.66 100.2 53.72C99.89 53.45 99.55 53.11 99.19 52.71L98.11 51.63 96.56 49.67C96.38 49.36 96.18 49.13 95.95 49 95.95 48.91 95.93 48.84 95.88 48.8L95.75 48.67 95.62 48.47C95.62 48.47 95.55 48.36 95.55 48.27 95.51 48.23 95.48 48.16 95.48 48.07L95.28 47.33C95.24 46.93 95.24 46.57 95.28 46.25 95.28 45.53 95.37 45.01 95.55 44.7 95.95 43.58 96.18 42.97 96.22 42.88L96.42 42.54C96.42 42.54 96.49 42.43 96.49 42.34L96.56 42.14C96.69 42.01 96.78 41.85 96.83 41.67L96.96 41.4 97.09 41.2 97.22 40.93 97.35 40.59C97.53 40.41 97.64 40.21 97.69 39.98L99.44 37.28C99.66 37.01 99.8 36.74 99.84 36.47 100.06 36.25 100.27 35.98 100.45 35.66L102.61 32.96 102.74 32.83 102.81 32.7 102.94 32.57C102.98 32.48 103.21 32.23 103.61 31.83 103.88 31.47 104.15 31.2 104.42 31.02 104.64 30.75 104.89 30.5 105.16 30.28L105.56 29.94 105.69 29.81 105.82 29.74 105.95 29.61C106.17 29.39 106.47 29.14 106.83 28.87 106.92 28.83 107.05 28.71 107.23 28.53 107.41 28.44 107.52 28.37 107.57 28.33L107.64 28.26 107.71 28.19 108.65 27.58 111.55 26.03C111.91 25.99 112.27 25.87 112.63 25.69L113.24 25.49 113.71 25.36 113.91 25.29 114.18 25.22 114.52 25.15 114.86 25.08 115.94 24.88C116.07 24.84 116.48 24.81 117.15 24.81 117.28 24.77 117.69 24.74 118.36 24.74 118.49 24.79 118.9 24.81 119.57 24.81L122.2 25.28C122.6 25.33 123.05 25.46 123.55 25.68L126.65 26.89C126.74 26.94 127.21 27.18 128.07 27.63L129.35 28.44C129.62 28.57 129.98 28.87 130.43 29.32 130.7 29.45 130.92 29.61 131.1 29.79L131.37 29.99 131.57 30.19 132.51 31.13 132.71 31.26 132.91 31.46C133.04 31.59 133.2 31.8 133.38 32.07L134.19 33.08 134.32 33.21 134.52 33.41C134.65 33.59 134.79 33.79 134.92 34.02 135.01 34.11 135.12 34.29 135.26 34.56L135.39 34.83 135.52 35.1 135.59 35.17 135.66 35.3 135.79 35.57 135.92 35.84 136.05 36.11C136.05 36.11 136.16 36.24 136.25 36.38 136.34 36.61 136.43 36.85 136.52 37.12L136.59 37.25 136.72 37.45 136.85 37.79 136.98 38.19 137.05 38.39 137.12 38.59 137.32 39.2C137.32 39.2 137.39 39.31 137.39 39.4L137.46 39.67 137.59 40.21C137.59 40.21 137.66 40.32 137.66 40.41L137.73 40.68 137.8 40.88 137.8 41.01C137.8 41.01 137.87 41.1 137.87 41.14L137.94 41.61C137.94 41.88 137.96 42.04 138.01 42.08L138.21 42.96 138.34 45.39 138.27 46.67C138.27 47.12 138.25 47.39 138.2 47.48L137.32 49.97C137.14 50.42 136.98 50.73 136.85 50.91L136.38 51.79 134.49 54.69 134.02 55.16 133.68 55.63C133.5 55.9 133.34 56.1 133.21 56.24L133.01 56.44 132.81 56.64 132 57.45 131.73 57.72 131.39 57.99 130.99 58.39 129.98 59.33 129.78 59.53 129.58 59.73C129.45 59.86 129.24 60.02 128.97 60.2 128.61 60.56 128.25 60.83 127.89 61.01L126.81 61.75C126.41 62.07 126 62.34 125.6 62.56L125.26 62.76 125.06 62.89 124.86 62.96C124.73 63.09 124.57 63.21 124.39 63.3 124.03 63.66 123.63 63.91 123.18 64.04 122.15 64.27 121.74 64.49 121.97 64.71 122.19 64.89 122.73 64.89 123.59 64.71 123.68 64.67 124.2 64.69 125.14 64.78 125.5 64.91 126.02 64.94 126.69 64.85 127.23 64.85 127.72 64.92 128.17 65.05 128.3 65.1 128.8 65.12 129.65 65.12L131.67 65.39C132.07 65.39 132.3 65.41 132.34 65.46L134.16 65.73C134.47 65.73 134.65 65.75 134.7 65.8L135.31 65.93 135.85 66.06 137.54 66.33C137.81 66.33 137.97 66.35 138.01 66.4L139.83 66.87C139.83 66.87 140.01 66.94 140.23 66.94L140.7 67.01 140.77 67.01 141.04 67.14 141.44 67.27 144.54 67.94C145.03 68.03 145.55 68.28 146.09 68.68 146.54 68.86 146.88 69.18 147.1 69.62L147.3 70.23 147.43 70.7C147.47 70.79 147.5 71.15 147.5 71.78 147.5 72.23 147.48 72.48 147.43 72.52L146.69 75.42Z" fill="#334A2B"/><path d="M145.55 72.82 145.42 73.36 145.22 73.97 145.15 74.24 145.08 74.58 144.88 75.39 144.75 76.06 144.55 76.87C144.37 77.32 144.24 77.79 144.15 78.29 144.15 78.34 144.11 78.52 144.02 78.83L143.89 79.3 143.69 79.91C143.65 80.31 143.51 80.76 143.29 81.26 143.11 81.98 142.84 82.61 142.48 83.15 142.21 83.55 141.9 83.94 141.54 84.3 141.18 84.57 140.87 84.73 140.6 84.77 140.33 84.9 140.04 84.97 139.72 84.97L138.98 84.9C138.98 84.81 138.96 84.77 138.91 84.77 138.78 84.77 138.68 84.75 138.64 84.7 138.68 84.7 138.66 84.68 138.57 84.63 138.48 84.63 138.34 84.61 138.17 84.56L134.73 83.41 134.39 83.28 133.99 83.21 133.45 83.08 132.98 82.95 132.64 82.82C132.33 82.78 132.1 82.71 131.97 82.62 131.39 82.53 130.85 82.4 130.35 82.22 129.77 82.04 129.14 81.91 128.46 81.82L126.44 81.28 124.75 81.01C124.44 81.01 124.25 80.99 124.21 80.94L123 80.74 119.22 80.67 116.59 80.74 115.31 80.94C114.59 80.94 114.16 80.96 114.03 81.01L112.75 81.21C112.08 81.21 111.67 81.23 111.54 81.28L104.87 82.43C104.87 82.43 104.69 82.5 104.47 82.5L104 82.57C103.55 82.57 103.3 82.59 103.26 82.64L101.44 83.04C101.44 83.04 101.28 83.11 101.1 83.11 100.7 83.16 100.29 83.16 99.89 83.11 99.44 83.11 99.13 83.02 98.95 82.84L98.14 82.23 97.47 81.35C97.29 80.99 97.16 80.65 97.07 80.34 96.89 80.12 96.73 79.69 96.6 79.06L95.52 74.48 95.32 74.01 95.19 73C95.19 73 95.17 72.89 95.12 72.8L95.12 72.6 95.05 72.4 94.71 70.51 94.64 70.11 94.57 69.64 94.5 69.3 94.43 69.03 94.36 66.6C94.36 66.29 94.47 66.02 94.7 65.79 94.88 65.48 95.17 65.21 95.58 64.98L98.61 64.04 99.01 63.97 99.48 63.9 99.82 63.83 100.09 63.76C100.09 63.76 100.25 63.69 100.43 63.69L100.83 63.62 101.23 63.49 103.66 62.75 103.93 62.62 104.2 62.55 104.74 62.42 105.21 62.29 105.48 62.16 105.82 62.09 106.97 61.62 107.98 61.08 109.13 60.61 112.3 58.79 112.84 58.39 113.38 57.99 114.32 57.25C114.41 57.21 114.7 56.94 115.2 56.44L115.6 56.04 115.87 55.7 116.14 55.43 119.31 51.38 120.46 49.36 120.86 48.42C121.08 48.15 121.22 47.88 121.26 47.61L121.39 47.14 121.52 46.74 121.72 45.93C121.76 45.84 121.79 45.59 121.79 45.19 121.79 44.79 121.77 44.54 121.72 44.45 121.72 44.18 121.65 43.96 121.52 43.78 121.48 43.65 121.43 43.53 121.39 43.44L121.26 43.31C121.26 43.22 121.24 43.15 121.19 43.11L121.06 42.98 120.93 42.78 120.46 42.31 118.3 41.57 118.03 41.5 117.76 41.43 117.36 41.36 116.96 41.29C116.83 41.25 116.44 41.22 115.81 41.22 115.18 41.22 114.82 41.24 114.73 41.29 114.46 41.29 114.15 41.36 113.79 41.49 113.48 41.54 113.23 41.65 113.05 41.83 112.74 41.88 112.47 42.01 112.24 42.23L111.23 43.04 110.29 43.98 109.95 44.38 109.61 44.78 109.27 45.18 109.07 45.45C108.8 45.81 108.62 46.08 108.53 46.26L108.26 46.6 108.13 46.87C107.68 47.63 107.43 48.06 107.39 48.15L106.45 51.12C106.45 51.12 106.38 51.35 106.38 51.66L106.31 52 106.04 52.27 105.84 52.4C105.84 52.4 105.73 52.51 105.64 52.6L105.44 52.73 105.17 52.93C104.9 53.11 104.59 53.25 104.23 53.33 103.78 53.38 103.35 53.38 102.95 53.33 102.37 53.24 101.85 53.04 101.4 52.72L100.19 52.05 99.04 51.11C98.73 50.84 98.39 50.5 98.03 50.1L96.95 49.02 95.4 47.06C95.22 46.75 95.02 46.52 94.79 46.39 94.79 46.3 94.77 46.23 94.72 46.19L94.59 46.06 94.46 45.86C94.46 45.86 94.39 45.75 94.39 45.66 94.35 45.62 94.32 45.55 94.32 45.46L94.12 44.72C94.08 44.32 94.08 43.96 94.12 43.64 94.12 42.92 94.21 42.4 94.39 42.09 94.79 40.97 95.02 40.36 95.06 40.27L95.26 39.93C95.26 39.93 95.33 39.82 95.33 39.73L95.4 39.53C95.53 39.4 95.62 39.24 95.67 39.06L95.8 38.79 95.93 38.59 96.06 38.32 96.19 37.98C96.37 37.8 96.48 37.6 96.53 37.37L98.28 34.67C98.5 34.4 98.64 34.13 98.68 33.86 98.9 33.64 99.11 33.37 99.29 33.05L101.45 30.35 101.58 30.22 101.65 30.09 101.78 29.96C101.82 29.87 102.05 29.62 102.45 29.22 102.72 28.86 102.99 28.59 103.26 28.41 103.48 28.14 103.73 27.89 104 27.67L104.4 27.33 104.53 27.2 104.66 27.13 104.79 27C105.01 26.78 105.31 26.53 105.67 26.26 105.76 26.22 105.89 26.1 106.07 25.92 106.25 25.83 106.36 25.76 106.41 25.72L106.48 25.65 106.55 25.58 107.49 24.97 110.39 23.42C110.75 23.38 111.11 23.26 111.47 23.08L112.08 22.88 112.55 22.75 112.75 22.68 113.02 22.61 113.36 22.54 113.7 22.47 114.78 22.27C114.91 22.23 115.32 22.2 115.99 22.2 116.12 22.16 116.53 22.13 117.2 22.13 117.33 22.18 117.74 22.2 118.41 22.2L121.04 22.67C121.44 22.72 121.89 22.85 122.39 23.07L125.49 24.28C125.58 24.33 126.05 24.57 126.91 25.02L128.19 25.83C128.46 25.96 128.82 26.26 129.27 26.71 129.54 26.84 129.76 27 129.94 27.18L130.21 27.38 130.41 27.58 131.35 28.52 131.55 28.65 131.75 28.85C131.88 28.98 132.04 29.19 132.22 29.46L133.03 30.47 133.16 30.6 133.36 30.8C133.49 30.98 133.63 31.18 133.76 31.41 133.85 31.5 133.96 31.68 134.1 31.95L134.23 32.22 134.36 32.49 134.43 32.56 134.5 32.69 134.63 32.96 134.76 33.23 134.89 33.5C134.89 33.5 135 33.63 135.09 33.77 135.18 34 135.27 34.24 135.36 34.51L135.43 34.64 135.56 34.84 135.69 35.18 135.82 35.58 135.89 35.78 135.96 35.98 136.16 36.59C136.16 36.59 136.23 36.7 136.23 36.79L136.3 37.06 136.43 37.6C136.43 37.6 136.5 37.71 136.5 37.8L136.57 38.07 136.64 38.27 136.64 38.4C136.64 38.4 136.71 38.49 136.71 38.53L136.78 39C136.78 39.27 136.8 39.43 136.85 39.47L137.05 40.35 137.18 42.78 137.11 44.06C137.11 44.51 137.09 44.78 137.04 44.87L136.16 47.36C135.98 47.81 135.82 48.12 135.69 48.3L135.22 49.18 133.33 52.08 132.86 52.55 132.52 53.02C132.34 53.29 132.18 53.49 132.05 53.63L131.85 53.83 131.65 54.03 130.84 54.84 130.57 55.11 130.23 55.38 129.83 55.78 128.82 56.72 128.62 56.92 128.42 57.12C128.29 57.25 128.08 57.41 127.81 57.59 127.45 57.95 127.09 58.22 126.73 58.4L125.65 59.14C125.25 59.46 124.84 59.73 124.44 59.95L124.1 60.15 123.9 60.28 123.7 60.35C123.57 60.48 123.41 60.6 123.23 60.69 122.87 61.05 122.47 61.3 122.02 61.43 120.99 61.66 120.58 61.88 120.81 62.1 121.03 62.28 121.57 62.28 122.43 62.1 122.52 62.06 123.04 62.08 123.98 62.17 124.34 62.3 124.86 62.33 125.53 62.24 126.07 62.24 126.56 62.31 127.01 62.44 127.14 62.49 127.64 62.51 128.49 62.51L130.51 62.78C130.91 62.78 131.14 62.8 131.18 62.85L133 63.12C133.31 63.12 133.49 63.14 133.54 63.19L134.15 63.32 134.69 63.45 136.38 63.72C136.65 63.72 136.81 63.74 136.85 63.79L138.67 64.26C138.67 64.26 138.85 64.33 139.07 64.33L139.54 64.4 139.61 64.4 139.88 64.53 140.28 64.66 143.38 65.33C143.87 65.42 144.39 65.67 144.93 66.07 145.38 66.25 145.72 66.57 145.94 67.01L146.14 67.62 146.27 68.09C146.31 68.18 146.34 68.54 146.34 69.17 146.34 69.62 146.32 69.87 146.27 69.91L145.53 72.81Z" fill="#FFFFFF"/></g></svg>