<svg viewBox="0 0 223.91 125.44" xmlns="http://www.w3.org/2000/svg" xmlns:xlink="http://www.w3.org/1999/xlink" id="Layer_1" overflow="hidden"><defs><linearGradient x1="16.51" y1="-11.16" x2="143.11" y2="83.9" gradientUnits="userSpaceOnUse" id="linear-gradient"><stop offset="0" stop-color="#FFFFFF"/><stop offset="0.09" stop-color="#EAEED8"/><stop offset="0.38" stop-color="#AEBE67"/><stop offset="0.51" stop-color="#96AB3B"/></linearGradient></defs><g><rect x="0" y="8.97" rx="54.66" ry="54.66" width="220.15" height="116.47" fill="#231F20" opacity="0.56"/><rect x="3.26" y="0.5" rx="54.66" ry="54.66" width="220.15" height="116.47" stroke="#2A4C24" stroke-miterlimit="10" fill="#96AB3B"/><path d="M178.43 4.21C124.78 7.21 81.88 12.86 53.65 42.33 35.52 61.26 32.17 83.61 37.59 109.04 17.83 100.57 11.55 84.09 9 76.57 6.02 67.8 1.17 30.98 27.88 13.56 42.37 4.11 52.59 4.74 52.59 4.74 52.59 4.74 133.78 4.21 178.43 4.21Z" fill="url(#linear-gradient)" opacity="0.78"/></g><g><path d="M94.33 43.94C94.18 43.69 94.05 43.29 93.95 42.73 93.8 42.38 93.67 41.75 93.57 40.84L93.57 40.46C93.52 40.51 93.57 40.38 93.72 40.08L93.87 39.78 94.02 39.63 94.47 38.8C94.72 38.5 95 38.22 95.3 37.97L96.43 36.76 96.96 36.23 97.41 35.85C97.71 35.55 97.89 35.37 97.94 35.32 97.99 35.27 98.14 35.14 98.39 34.94L98.62 34.71 98.92 34.48 99.52 34.03 100.12 33.5 102.23 31.91 102.76 31.61 103.29 31.31C103.59 31.01 103.94 30.78 104.35 30.63L106.54 29.42C106.89 29.22 107.3 29.07 107.75 28.97 107.8 28.92 107.93 28.84 108.13 28.74 108.33 28.64 108.58 28.54 108.89 28.44L109.12 28.36 109.42 28.28 109.8 28.13 110.18 28.05 111.92 27.52 112.15 27.44 112.3 27.44 112.45 27.36 113.05 27.21 113.65 27.06C113.65 27.06 113.9 26.98 114.25 26.98L117.2 26.68C117.3 26.63 117.7 26.6 118.41 26.6L120.6 26.68 122.26 26.98C122.56 26.98 122.74 27.01 122.79 27.06L123.09 27.14 123.39 27.22 123.99 27.37 125.05 27.75C125.55 27.95 125.91 28.13 126.11 28.28L128.15 29.41C128.25 29.46 128.4 29.59 128.6 29.79 128.8 29.89 128.93 29.97 128.98 30.02L129.06 30.1 129.14 30.18C129.39 30.48 129.67 30.76 129.97 31.01L130.2 31.24 130.5 31.47 130.88 31.85 130.96 31.93 131.04 32.01C131.09 32.06 131.17 32.19 131.27 32.39 131.47 32.59 131.6 32.74 131.65 32.84L133.01 35.03 133.54 36.31C133.59 36.36 133.67 36.54 133.77 36.84L133.92 37.22 134.07 37.67C134.32 38.22 134.47 38.7 134.52 39.1L134.6 39.4 134.68 39.78 134.76 40.23 134.84 40.68 134.92 40.98 135 41.36 135.08 41.81 135.16 42.26C135.21 42.31 135.24 42.41 135.24 42.56L135.32 43.09 135.4 43.92C135.5 44.58 135.5 45.26 135.4 45.96 135.4 46.56 135.32 47.22 135.17 47.92 134.97 48.47 134.84 49.05 134.79 49.66L134.19 51.17 134.19 51.09 134.11 51.24 134.03 51.47 133.88 51.77C133.78 51.92 133.63 52.2 133.43 52.6L132.67 53.88C132.47 54.23 132.17 54.61 131.76 55.01 131.66 55.16 131.48 55.36 131.23 55.61L131 55.91 130.77 56.06C130.52 56.36 130.24 56.64 129.94 56.89 129.74 57.09 129.44 57.34 129.03 57.65L127.6 58.71 127.3 58.86 127.15 59.01C126.85 59.16 126.72 59.21 126.77 59.16L126.62 59.24C126.57 59.29 126.57 59.32 126.62 59.32L126.92 59.32C127.32 59.32 127.55 59.35 127.6 59.4L131.68 60.16 133.19 60.54 136.21 61.6 136.81 61.9 137.49 62.2 138.32 62.8 138.4 62.88 138.55 63.03C138.7 63.18 138.85 63.38 139 63.63 139.25 63.88 139.48 64.21 139.68 64.61 139.88 64.96 140.06 65.32 140.21 65.67L140.81 67.63 140.89 67.86 140.89 68.09C140.94 68.19 140.97 68.27 140.97 68.32L141.05 68.55 141.05 68.78 141.13 69.01 141.28 69.77C141.33 69.92 141.36 70.43 141.36 71.28 141.41 71.43 141.44 72.01 141.44 73.02 141.49 73.17 141.52 73.8 141.52 74.91 141.52 75.57 141.49 75.94 141.44 76.04 141.44 76.75 141.41 77.15 141.36 77.25L141.13 78.38 141.05 78.53 140.97 78.76 140.74 79.44C140.64 80.04 140.51 80.42 140.36 80.57L139.98 81.63 139.38 82.69C139.33 82.74 139.25 82.84 139.15 82.99 139.05 83.24 138.95 83.52 138.85 83.82 138.55 84.12 138.32 84.42 138.17 84.73 137.97 85.08 137.69 85.44 137.34 85.79L136.96 86.17 136.73 86.4 136.5 86.7C136.1 87 135.79 87.33 135.59 87.68 135.09 88.18 134.78 88.46 134.68 88.51 134.33 88.86 133.95 89.17 133.55 89.42L131.28 90.93 127.5 92.97C127.25 93.17 126.77 93.35 126.07 93.5L125.54 93.65 125.09 93.8 124.79 93.95 124.56 94.03C124.41 94.08 124.13 94.16 123.73 94.26L123.13 94.41 120.03 95.24 119.27 95.32C118.82 95.32 118.54 95.35 118.44 95.4 117.68 95.55 116.95 95.63 116.25 95.63 116.05 95.68 115.37 95.71 114.21 95.71L112.32 95.71 109.6 95.41C109.15 95.41 108.87 95.39 108.77 95.33L108.32 95.25 107.87 95.17 107.49 95.09 107.19 95.01 104.32 94.18 103.04 93.65C102.69 93.55 102.31 93.4 101.91 93.2L101.38 92.97 101.08 92.82 100.93 92.67C100.58 92.62 100.25 92.47 99.95 92.22 99.75 92.02 99.5 91.87 99.19 91.77L96.92 90.11 96.69 89.88 96.39 89.65 95.94 89.35 95.56 89.12 94.5 88.06 93.59 86.93C93.34 86.68 93.06 86.25 92.76 85.65L92.08 84.37C92.03 83.92 91.88 83.46 91.63 83.01 91.58 82.86 91.5 82.58 91.4 82.18L91.32 81.88 91.24 81.65 91.16 81.27 91.08 80.82 91 80.52 90.92 80.29 90.69 77.72C90.64 77.62 90.61 77.24 90.61 76.59L90.69 74.55 90.84 73.64C90.84 73.64 90.92 73.36 90.92 72.96L91.68 70.39 92.06 69.86 92.44 69.48 93.57 68.8 95.68 67.97 95.91 67.89 96.06 67.89 96.21 67.81 100.21 67.66C100.97 67.66 101.42 67.69 101.57 67.74 102.22 67.74 102.63 67.77 102.78 67.82L103.23 67.9 103.61 67.9 103.99 67.98C104.04 68.03 104.19 68.06 104.44 68.06L104.97 68.14C105.47 68.14 105.75 68.17 105.8 68.22 106.4 68.37 107.06 68.6 107.76 68.9 108.21 69.1 108.59 69.48 108.89 70.03 109.14 70.33 109.22 70.69 109.12 71.09L108.74 71.92C108.59 72.27 108.51 72.63 108.51 72.98 108.46 73.08 108.48 73.51 108.59 74.26 108.69 74.86 108.89 75.47 109.19 76.07 109.29 76.27 109.44 76.5 109.64 76.75L110.32 77.43 111.3 78.03C111.6 78.28 111.93 78.43 112.28 78.48L112.51 78.56 112.81 78.64 113.19 78.72 113.57 78.8 114.78 79.03C114.93 79.08 115.38 79.11 116.14 79.11 116.94 79.11 117.42 79.09 117.57 79.03 118.02 79.03 118.48 78.95 118.93 78.8L119.31 78.72 119.76 78.64 120.36 78.49C120.81 78.39 121.22 78.24 121.57 78.04L122.55 77.36C122.9 77.11 123.18 76.81 123.38 76.45L124.06 75.47C124.31 75.07 124.46 74.69 124.51 74.34 124.76 73.94 124.91 73.56 124.96 73.21L125.19 72 125.19 70.79C125.19 70.09 125.16 69.68 125.11 69.58L124.81 68.52C124.76 68.22 124.61 67.92 124.36 67.61 124.06 67.21 123.83 66.93 123.68 66.78 123.48 66.53 123.18 66.3 122.77 66.1L122.39 65.95C122.24 65.9 122.06 65.82 121.86 65.72 121.76 65.67 121.41 65.64 120.8 65.64L119.06 65.72C118.71 65.72 118.51 65.75 118.46 65.8L118.23 65.88 118 65.96 117.62 66.04 117.24 66.12 116.56 66.35 116.33 66.43 116.1 66.51 112.63 67.64C112.53 67.69 112.18 67.72 111.57 67.72 111.42 67.77 110.84 67.8 109.83 67.8L106.81 67.65C106.51 67.6 106.16 67.45 105.75 67.2 105.4 67.1 105.12 66.95 104.92 66.75 104.72 66.55 104.54 66.3 104.39 65.99L104.09 65.08C104.04 64.98 104.01 64.6 104.01 63.95L104.01 62.82C104.01 62.06 104.04 61.61 104.09 61.46L104.17 61.23 104.25 60.85 104.33 60.47 104.41 60.09 104.49 59.71 104.57 59.33 104.65 59.03 104.73 58.8C104.98 58.3 105.31 57.84 105.71 57.44 106.06 57.09 106.47 56.89 106.92 56.84L108.2 56.84 109.56 57.29 110.09 57.37C110.39 57.37 110.57 57.4 110.62 57.45 110.77 57.5 111.3 57.53 112.21 57.53 113.22 57.53 113.82 57.51 114.02 57.45 114.78 57.35 115.48 57.2 116.13 57L116.51 56.85 116.81 56.7 117.11 56.55 117.26 56.47 117.41 56.39 117.49 56.31 117.57 56.23C117.57 56.23 117.75 56.1 117.95 56 118.15 55.8 118.3 55.67 118.4 55.62L119.16 54.64C119.41 54.24 119.56 53.86 119.61 53.51L119.84 52.3 119.84 51.17C119.79 50.72 119.66 50.37 119.46 50.11 119.26 49.61 119.08 49.25 118.93 49.05 118.73 48.7 118.45 48.4 118.1 48.14L117.95 47.99 117.8 47.91 117.57 47.76 117.27 47.61 117.04 47.46 116.44 47.31 115.76 47.16C115.36 47.06 114.93 47.06 114.48 47.16L114.33 47.24 114.18 47.24 113.95 47.32 113.35 47.47 113.05 47.62 112.67 47.85 112.22 48.08 110.26 49.51 106.56 52.83C106.16 53.13 105.85 53.31 105.65 53.36 105.45 53.51 105.12 53.64 104.67 53.74 103.96 53.74 103.56 53.72 103.46 53.66L102.86 53.43 102.26 53.13C102.16 53.03 101.96 52.88 101.66 52.68L101.28 52.38 100.83 52 99.47 50.87C98.71 50.11 98.29 49.66 98.19 49.51L96.15 46.94 96 46.64 95.77 46.34C95.62 46.04 95.49 45.84 95.39 45.74L94.41 44.31C94.41 44.16 94.38 44.06 94.33 44.01Z" fill="#334A2B"/><path d="M92.7 41.01C92.55 40.76 92.42 40.36 92.32 39.8 92.17 39.45 92.04 38.82 91.94 37.91L91.94 37.53C91.89 37.58 91.94 37.45 92.09 37.15L92.24 36.85 92.39 36.7 92.84 35.87C93.09 35.57 93.37 35.29 93.67 35.04L94.8 33.83 95.33 33.3 95.78 32.92C96.08 32.62 96.26 32.44 96.31 32.39 96.36 32.34 96.51 32.21 96.76 32.01L96.99 31.78 97.29 31.55 97.89 31.1 98.49 30.57 100.6 28.98 101.13 28.68 101.66 28.38C101.96 28.08 102.31 27.85 102.72 27.7L104.91 26.49C105.26 26.29 105.67 26.14 106.12 26.04 106.17 25.99 106.3 25.91 106.5 25.81 106.7 25.71 106.95 25.61 107.26 25.51L107.49 25.43 107.79 25.35 108.17 25.2 108.55 25.12 110.29 24.59 110.52 24.51 110.67 24.51 110.82 24.43 111.42 24.28 112.02 24.13C112.02 24.13 112.27 24.05 112.62 24.05L115.57 23.75C115.67 23.7 116.07 23.67 116.78 23.67L118.97 23.75 120.63 24.05C120.93 24.05 121.11 24.08 121.16 24.13L121.46 24.21 121.76 24.29 122.36 24.44 123.42 24.82C123.92 25.02 124.28 25.2 124.48 25.35L126.52 26.48C126.62 26.53 126.77 26.66 126.97 26.86 127.17 26.96 127.3 27.04 127.35 27.09L127.43 27.17 127.51 27.25C127.76 27.55 128.04 27.83 128.34 28.08L128.57 28.31 128.87 28.54 129.25 28.92 129.33 29 129.41 29.08C129.46 29.13 129.54 29.26 129.64 29.46 129.84 29.66 129.97 29.81 130.02 29.91L131.38 32.1 131.91 33.38C131.96 33.43 132.04 33.61 132.14 33.91L132.29 34.29 132.44 34.74C132.69 35.29 132.84 35.77 132.89 36.17L132.97 36.47 133.05 36.85 133.13 37.3 133.21 37.75 133.29 38.05 133.37 38.43 133.45 38.88 133.53 39.33C133.58 39.38 133.61 39.48 133.61 39.63L133.69 40.16 133.77 40.99C133.87 41.65 133.87 42.33 133.77 43.03 133.77 43.63 133.69 44.29 133.54 44.99 133.34 45.54 133.21 46.12 133.16 46.73L132.56 48.24 132.56 48.16 132.48 48.31 132.4 48.54 132.25 48.84C132.15 48.99 132 49.27 131.8 49.67L131.04 50.95C130.84 51.3 130.54 51.68 130.13 52.08 130.03 52.23 129.85 52.43 129.6 52.68L129.37 52.98 129.14 53.13C128.89 53.43 128.61 53.71 128.31 53.96 128.11 54.16 127.81 54.41 127.4 54.72L125.97 55.78 125.67 55.93 125.52 56.08C125.22 56.23 125.09 56.28 125.14 56.23L124.99 56.31C124.94 56.36 124.94 56.39 124.99 56.39L125.29 56.39C125.69 56.39 125.92 56.42 125.97 56.47L130.05 57.23 131.56 57.61 134.58 58.67 135.18 58.97 135.86 59.27 136.69 59.87 136.77 59.95 136.92 60.1C137.07 60.25 137.22 60.45 137.37 60.7 137.62 60.95 137.85 61.28 138.05 61.68 138.25 62.03 138.43 62.39 138.58 62.74L139.18 64.7 139.26 64.93 139.26 65.16C139.31 65.26 139.34 65.34 139.34 65.39L139.42 65.62 139.42 65.85 139.5 66.08 139.65 66.84C139.7 66.99 139.73 67.5 139.73 68.35 139.78 68.5 139.81 69.08 139.81 70.09 139.86 70.24 139.89 70.87 139.89 71.98 139.89 72.64 139.86 73.01 139.81 73.11 139.81 73.82 139.78 74.22 139.73 74.32L139.5 75.45 139.42 75.6 139.34 75.83 139.11 76.51C139.01 77.11 138.88 77.49 138.73 77.64L138.35 78.7 137.75 79.76C137.7 79.81 137.62 79.91 137.52 80.06 137.42 80.31 137.32 80.59 137.22 80.89 136.92 81.19 136.69 81.49 136.54 81.8 136.34 82.15 136.06 82.51 135.71 82.86L135.33 83.24 135.1 83.47 134.87 83.77C134.47 84.07 134.16 84.4 133.96 84.75 133.46 85.25 133.15 85.53 133.05 85.58 132.7 85.93 132.32 86.24 131.92 86.49L129.65 88 125.87 90.04C125.62 90.24 125.14 90.42 124.44 90.57L123.91 90.72 123.46 90.87 123.16 91.02 122.93 91.1C122.78 91.15 122.5 91.23 122.1 91.33L121.5 91.48 118.4 92.31 117.64 92.39C117.19 92.39 116.91 92.42 116.81 92.47 116.05 92.62 115.32 92.7 114.62 92.7 114.42 92.75 113.74 92.78 112.58 92.78L110.69 92.78 107.97 92.48C107.52 92.48 107.24 92.46 107.14 92.4L106.69 92.32 106.24 92.24 105.86 92.16 105.56 92.08 102.69 91.25 101.41 90.72C101.06 90.62 100.68 90.47 100.28 90.27L99.75 90.04 99.45 89.89 99.3 89.74C98.95 89.69 98.62 89.54 98.32 89.29 98.12 89.09 97.87 88.94 97.56 88.84L95.29 87.18 95.06 86.95 94.76 86.72 94.31 86.42 93.93 86.19 92.87 85.13 91.96 84C91.71 83.75 91.43 83.32 91.13 82.72L90.45 81.44C90.4 80.99 90.25 80.53 90 80.08 89.95 79.93 89.87 79.65 89.77 79.25L89.69 78.95 89.61 78.72 89.53 78.34 89.45 77.89 89.37 77.59 89.29 77.36 89.06 74.79C89.01 74.69 88.98 74.31 88.98 73.66L89.06 71.62 89.21 70.71C89.21 70.71 89.29 70.43 89.29 70.03L90.05 67.46 90.43 66.93 90.81 66.55 91.94 65.87 94.05 65.04 94.28 64.96 94.43 64.96 94.58 64.88 98.58 64.73C99.34 64.73 99.79 64.76 99.94 64.81 100.59 64.81 101 64.84 101.15 64.89L101.6 64.97 101.98 64.97 102.36 65.05C102.41 65.1 102.56 65.13 102.81 65.13L103.34 65.21C103.84 65.21 104.12 65.24 104.17 65.29 104.77 65.44 105.43 65.67 106.13 65.97 106.58 66.17 106.96 66.55 107.26 67.1 107.51 67.4 107.59 67.76 107.49 68.16L107.11 68.99C106.96 69.34 106.88 69.7 106.88 70.05 106.83 70.15 106.85 70.58 106.96 71.33 107.06 71.93 107.26 72.54 107.56 73.14 107.66 73.34 107.81 73.57 108.01 73.82L108.69 74.5 109.67 75.1C109.97 75.35 110.3 75.5 110.65 75.55L110.88 75.63 111.18 75.71 111.56 75.79 111.94 75.87 113.15 76.1C113.3 76.15 113.75 76.18 114.51 76.18 115.31 76.18 115.79 76.16 115.94 76.1 116.39 76.1 116.85 76.02 117.3 75.87L117.68 75.79 118.13 75.71 118.73 75.56C119.18 75.46 119.59 75.31 119.94 75.11L120.92 74.43C121.27 74.18 121.55 73.88 121.75 73.52L122.43 72.54C122.68 72.14 122.83 71.76 122.88 71.41 123.13 71.01 123.28 70.63 123.33 70.28L123.56 69.07 123.56 67.86C123.56 67.16 123.53 66.75 123.48 66.65L123.18 65.59C123.13 65.29 122.98 64.99 122.73 64.68 122.43 64.28 122.2 64 122.05 63.85 121.85 63.6 121.55 63.37 121.14 63.17L120.76 63.02C120.61 62.97 120.43 62.89 120.23 62.79 120.13 62.74 119.78 62.71 119.17 62.71L117.43 62.79C117.08 62.79 116.88 62.82 116.83 62.87L116.6 62.95 116.37 63.03 115.99 63.11 115.61 63.19 114.93 63.42 114.7 63.5 114.47 63.58 111 64.71C110.9 64.76 110.55 64.79 109.94 64.79 109.79 64.84 109.21 64.87 108.2 64.87L105.18 64.72C104.88 64.67 104.53 64.52 104.12 64.27 103.77 64.17 103.49 64.02 103.29 63.82 103.09 63.62 102.91 63.37 102.76 63.06L102.46 62.15C102.41 62.05 102.38 61.67 102.38 61.02L102.38 59.89C102.38 59.13 102.41 58.68 102.46 58.53L102.54 58.3 102.62 57.92 102.7 57.54 102.78 57.16 102.86 56.78 102.94 56.4 103.02 56.1 103.1 55.87C103.35 55.37 103.68 54.91 104.08 54.51 104.43 54.16 104.84 53.96 105.29 53.91L106.57 53.91 107.93 54.36 108.46 54.44C108.76 54.44 108.94 54.47 108.99 54.52 109.14 54.57 109.67 54.6 110.58 54.6 111.59 54.6 112.19 54.58 112.39 54.52 113.15 54.42 113.85 54.27 114.5 54.07L114.88 53.92 115.18 53.77 115.48 53.62 115.63 53.54 115.78 53.46 115.86 53.38 115.94 53.3C115.94 53.3 116.12 53.17 116.32 53.07 116.52 52.87 116.67 52.74 116.77 52.69L117.53 51.71C117.78 51.31 117.93 50.93 117.98 50.58L118.21 49.37 118.21 48.24C118.16 47.79 118.03 47.44 117.83 47.18 117.63 46.68 117.45 46.32 117.3 46.12 117.1 45.77 116.82 45.47 116.47 45.21L116.32 45.06 116.17 44.98 115.94 44.83 115.64 44.68 115.41 44.53 114.81 44.38 114.13 44.23C113.73 44.13 113.3 44.13 112.85 44.23L112.7 44.31 112.55 44.31 112.32 44.39 111.72 44.54 111.42 44.69 111.04 44.92 110.59 45.15 108.63 46.58 104.93 49.9C104.53 50.2 104.22 50.38 104.02 50.43 103.82 50.58 103.49 50.71 103.04 50.81 102.33 50.81 101.93 50.79 101.83 50.73L101.23 50.5 100.63 50.2C100.53 50.1 100.33 49.95 100.03 49.75L99.65 49.45 99.2 49.07 97.84 47.94C97.08 47.18 96.66 46.73 96.56 46.58L94.52 44.01 94.37 43.71 94.14 43.41C93.99 43.11 93.86 42.91 93.76 42.81L92.78 41.38C92.78 41.23 92.75 41.13 92.7 41.08Z" fill="#FFFFFF"/></g></svg>