<svg viewBox="0 0 161.68 322.59" xmlns="http://www.w3.org/2000/svg" xmlns:xlink="http://www.w3.org/1999/xlink" id="Layer_1" overflow="hidden"><defs></defs><path d="M0.38 322.59 0 322.59 0 320.59 0.38 320.59C1.08 320.59 1.79 320.59 2.49 320.59L2.51 322.59C1.8 322.59 1.09 322.6 0.38 322.6Z" fill="#FFFFFF"/><path d="M7.59 322.43 7.5 320.43C9.16 320.36 10.84 320.26 12.5 320.13L12.65 322.12C10.97 322.25 9.26 322.35 7.59 322.42ZM17.71 321.67 17.5 319.68C19.15 319.5 20.82 319.3 22.47 319.07L22.75 321.05C21.08 321.28 19.38 321.49 17.71 321.67ZM27.76 320.28 27.42 318.31C29.07 318.03 30.72 317.72 32.34 317.39L32.74 319.35C31.1 319.69 29.42 320 27.75 320.28ZM37.7 318.25 37.24 316.3C38.87 315.91 40.51 315.5 42.1 315.07L42.62 317C41.01 317.44 39.35 317.86 37.7 318.25ZM47.5 315.6 46.92 313.69C48.52 313.2 50.13 312.68 51.71 312.15L52.35 314.04C50.75 314.58 49.12 315.11 47.51 315.6ZM57.14 312.32 56.44 310.45C58.01 309.86 59.58 309.24 61.11 308.61L61.87 310.46C60.32 311.1 58.72 311.73 57.14 312.33ZM66.54 308.44 65.72 306.62C67.24 305.94 68.77 305.22 70.27 304.49L71.15 306.29C69.64 307.03 68.09 307.76 66.55 308.45ZM75.68 303.97 74.74 302.2C76.22 301.42 77.7 300.61 79.14 299.78L80.13 301.52C78.67 302.35 77.17 303.18 75.67 303.97ZM84.51 298.94 83.47 297.23C84.9 296.35 86.33 295.45 87.71 294.54L88.81 296.21C87.41 297.13 85.97 298.04 84.52 298.93ZM93 293.36 91.85 291.72C93.22 290.76 94.59 289.76 95.91 288.77L97.11 290.37C95.77 291.37 94.39 292.38 93 293.35ZM101.12 287.27 99.87 285.71C101.18 284.66 102.48 283.59 103.73 282.51L105.03 284.03C103.76 285.11 102.44 286.2 101.12 287.26ZM108.84 280.68 107.49 279.2C108.72 278.08 109.95 276.93 111.15 275.77L112.54 277.21C111.33 278.38 110.09 279.55 108.84 280.68ZM116.13 273.62 114.69 272.23C115.84 271.04 117 269.81 118.12 268.58L119.6 269.93C118.46 271.18 117.29 272.42 116.12 273.62ZM122.96 266.12 121.44 264.82C122.53 263.55 123.6 262.26 124.64 260.97L126.2 262.22C125.15 263.53 124.06 264.84 122.96 266.12ZM129.31 258.21 127.71 257.01C128.71 255.68 129.7 254.32 130.66 252.96L132.29 254.11C131.32 255.48 130.32 256.86 129.3 258.21ZM135.15 249.93 133.48 248.83C134.39 247.45 135.3 246.03 136.17 244.61L137.87 245.66C136.99 247.09 136.07 248.53 135.15 249.93ZM140.46 241.3 138.72 240.31C139.55 238.86 140.36 237.39 141.14 235.93L142.91 236.87C142.12 238.35 141.3 239.84 140.46 241.31ZM145.21 232.36 143.42 231.48C144.15 229.99 144.87 228.47 145.55 226.96L147.37 227.79C146.68 229.32 145.95 230.86 145.21 232.37ZM149.39 223.14 147.54 222.37C148.17 220.84 148.8 219.28 149.38 217.73L151.25 218.44C150.65 220.01 150.03 221.59 149.38 223.14ZM152.98 213.67 151.09 213.02C151.63 211.45 152.15 209.84 152.64 208.26L154.55 208.85C154.06 210.46 153.53 212.08 152.98 213.68ZM155.97 203.97 154.04 203.44C154.48 201.84 154.9 200.21 155.29 198.59L157.23 199.06C156.84 200.7 156.41 202.35 155.97 203.97ZM158.34 194.1 156.38 193.7C156.72 192.07 157.03 190.41 157.32 188.78L159.29 189.12C159 190.78 158.68 192.45 158.34 194.1ZM160.08 184.1 158.1 183.82C158.33 182.18 158.54 180.51 158.72 178.85L160.71 179.07C160.53 180.75 160.31 182.44 160.08 184.1ZM161.19 174.01 159.2 173.85C159.33 172.19 159.43 170.51 159.51 168.85L161.51 168.94C161.43 170.62 161.32 172.33 161.19 174ZM161.67 163.87 159.67 163.84C159.68 162.98 159.69 162.13 159.69 161.27 159.69 160.41 159.69 159.64 159.67 158.83L161.67 158.8C161.68 159.62 161.69 160.45 161.69 161.27 161.69 162.14 161.69 163.01 161.67 163.87ZM159.52 153.82C159.44 152.16 159.34 150.48 159.21 148.82L161.2 148.67C161.33 150.35 161.43 152.05 161.51 153.73L159.51 153.82ZM158.75 143.83C158.57 142.18 158.36 140.51 158.13 138.86L160.11 138.58C160.35 140.25 160.56 141.95 160.74 143.61L158.75 143.83ZM157.35 133.91C157.07 132.27 156.75 130.61 156.42 128.99L158.38 128.59C158.72 130.24 159.04 131.91 159.32 133.57L157.35 133.91ZM155.33 124.1C154.94 122.48 154.53 120.85 154.09 119.25L156.02 118.72C156.46 120.35 156.89 122 157.28 123.64L155.33 124.1ZM152.69 114.43C152.2 112.83 151.68 111.22 151.14 109.65L153.03 109C153.58 110.59 154.11 112.22 154.6 113.84L152.69 114.43ZM149.43 104.92C148.84 103.36 148.22 101.79 147.58 100.25L149.43 99.48C150.08 101.04 150.71 102.63 151.31 104.21L149.44 104.92ZM145.58 95.64C144.89 94.12 144.17 92.6 143.44 91.1L145.23 90.22C145.98 91.74 146.71 93.28 147.4 94.82L145.58 95.65ZM141.15 86.63C140.37 85.16 139.55 83.68 138.72 82.24L140.46 81.25C141.3 82.71 142.12 84.21 142.92 85.7L141.15 86.64ZM136.16 77.92C135.28 76.5 134.38 75.07 133.46 73.69L135.13 72.59C136.05 73.99 136.97 75.43 137.86 76.87L136.16 77.92ZM130.64 69.54C129.68 68.18 128.69 66.82 127.68 65.49L129.28 64.29C130.3 65.64 131.3 67.02 132.27 68.39L130.64 69.54ZM124.6 61.53C123.56 60.24 122.48 58.94 121.4 57.67L122.92 56.37C124.02 57.65 125.11 58.97 126.16 60.28L124.6 61.53ZM118.08 53.92C116.96 52.69 115.8 51.46 114.64 50.27L116.07 48.88C117.24 50.09 118.41 51.33 119.55 52.57L118.07 53.92ZM111.1 46.73C109.91 45.58 108.68 44.42 107.44 43.3L108.78 41.82C110.03 42.95 111.27 44.12 112.48 45.29L111.09 46.73ZM103.68 40C102.42 38.92 101.12 37.85 99.82 36.81L101.07 35.25C102.39 36.3 103.7 37.39 104.98 38.48L103.68 40ZM95.86 33.74C94.53 32.74 93.17 31.76 91.81 30.8L92.96 29.16C94.34 30.13 95.72 31.13 97.06 32.14L95.86 33.74ZM87.67 27.99C86.28 27.08 84.85 26.17 83.44 25.31L84.48 23.6C85.91 24.47 87.35 25.39 88.76 26.31L87.66 27.98ZM79.14 22.77C77.7 21.95 76.23 21.14 74.76 20.36L75.7 18.59C77.19 19.38 78.68 20.2 80.14 21.03L79.15 22.77ZM70.3 18.1C68.81 17.37 67.29 16.66 65.78 15.97L66.6 14.15C68.13 14.84 69.68 15.57 71.18 16.3L70.3 18.1ZM61.19 13.99C59.67 13.36 58.1 12.74 56.54 12.16L57.25 10.29C58.83 10.88 60.41 11.51 61.95 12.15L61.19 14ZM51.83 10.46C50.26 9.93 48.66 9.41 47.06 8.92L47.64 7.01C49.25 7.5 50.88 8.03 52.47 8.57L51.82 10.46ZM42.25 7.53C40.64 7.09 39.01 6.68 37.39 6.29L37.85 4.34C39.48 4.73 41.14 5.15 42.77 5.59L42.25 7.52ZM32.5 5.21C30.87 4.88 29.21 4.57 27.58 4.28L27.92 2.31C29.58 2.6 31.26 2.91 32.91 3.25L32.51 5.21ZM22.62 3.51C20.98 3.28 19.31 3.07 17.65 2.9L17.86 0.91C19.54 1.09 21.24 1.3 22.9 1.53L22.62 3.51ZM12.66 2.44C11 2.31 9.32 2.21 7.66 2.14L7.75 0.14C9.43 0.22 11.14 0.32 12.81 0.45L12.66 2.44Z" fill="#FFFFFF"/><path d="M2.49 2.01C1.79 2.01 1.08 2 0.38 2L0 2C0 2 0 0 0 0L0.38 0C1.09 0 1.8 0 2.51 0L2.49 2Z" fill="#FFFFFF"/></svg>