<svg viewBox="0 0 367.4 124.12" xmlns="http://www.w3.org/2000/svg" xmlns:xlink="http://www.w3.org/1999/xlink" id="Layer_1" overflow="hidden"><defs><linearGradient x1="46.6" y1="-30.46" x2="178.22" y2="105.75" gradientUnits="userSpaceOnUse" id="linear-gradient"><stop offset="0" stop-color="#FFFFFF"/><stop offset="0.14" stop-color="#FAD8C0"/><stop offset="0.39" stop-color="#F2934F"/><stop offset="0.51" stop-color="#EF7823"/></linearGradient></defs><rect x="0" y="7.65" rx="54.66" ry="54.66" width="362.68" height="116.47" fill="#231F20" opacity="0.56"/><rect x="3.73" y="1" rx="54.66" ry="54.66" width="362.68" height="116.47" stroke="#9A2B20" stroke-width="2" stroke-miterlimit="10" fill="#EF7823"/><path d="M229.88 4.71C176.23 7.71 82.35 13.35 54.11 42.82 35.98 61.75 32.63 84.1 38.05 109.53 18.29 101.06 12.01 84.58 9.46 77.06 6.49 68.3 1.64 31.48 28.35 14.06 42.84 4.61 53.06 5.24 53.06 5.24 53.06 5.24 185.24 4.71 229.88 4.71Z" fill="url(#linear-gradient)" opacity="0.78"/><g><path d="M83.84 55.41 66.33 55.41 66.33 84.91 83.84 84.91C85.12 84.91 86.16 83.87 86.16 82.59L86.16 57.72C86.16 56.44 85.12 55.4 83.84 55.4Z" fill="#FFFFFF"/><path d="M37.81 57.73 37.81 82.6C37.81 83.88 38.85 84.92 40.13 84.92L57.64 84.92 57.64 55.42 40.13 55.42C38.85 55.42 37.81 56.46 37.81 57.74Z" fill="#FFFFFF"/><path d="M34.64 43.06 34.64 50.32C34.64 51.6 35.68 52.64 36.96 52.64L57.64 52.64 57.64 40.75C57.64 40.75 36.96 40.75 36.96 40.75 35.68 40.75 34.64 41.79 34.64 43.07Z" fill="#FFFFFF"/><path d="M87.01 40.74 66.28 40.74 66.33 52.63 87.01 52.63C88.29 52.63 89.33 51.59 89.33 50.31L89.33 43.05C89.33 41.77 88.29 40.73 87.01 40.73Z" fill="#FFFFFF"/><path d="M44.25 38.12C44.52 38.27 44.94 38.51 46.18 38.51L77.48 38.51C78.84 38.51 79.37 38.25 79.66 38.08 81.73 36.86 83.03 34.29 83.03 31.02 83.03 28.59 82.26 26.16 80.92 24.36 79.27 22.15 76.83 20.94 74.05 20.94 73.82 20.94 73.59 20.94 73.35 20.96 66.05 21.46 63.08 28.4 61.92 32.87 60.76 28.4 57.79 21.47 50.49 20.96 50.25 20.94 50.02 20.94 49.79 20.94 47.01 20.94 44.57 22.16 42.92 24.36 41.58 26.16 40.81 28.58 40.81 31.02 40.81 34.33 42.14 36.91 44.25 38.12ZM73.64 25.13C73.78 25.13 73.92 25.12 74.05 25.12 75.53 25.12 76.71 25.71 77.58 26.87 78.4 27.96 78.86 29.48 78.86 31.04 78.86 32.31 78.42 34.73 76.74 34.73L65.77 34.73C66.52 31.38 68.56 25.5 73.64 25.15ZM46.27 26.86C47.13 25.7 48.32 25.11 49.8 25.11 49.93 25.11 50.07 25.11 50.21 25.12 55.28 25.47 57.32 31.35 58.07 34.7L47.1 34.7C45.42 34.7 44.98 32.29 44.98 31.01 44.98 29.46 45.45 27.94 46.26 26.84Z" fill="#FFFFFF"/></g><g><path d="M102.44 70.27 102.44 45.22 120.56 45.22 120.56 48.18 105.76 48.18 105.76 55.85 119.62 55.85 119.62 58.79 105.76 58.79 105.76 67.32 121.14 67.32 121.14 70.28 102.44 70.28Z" fill="#921C1D"/><path d="M122.96 70.27 122.96 52.12 125.73 52.12 125.73 54.7C127.06 52.71 128.99 51.71 131.51 51.71 132.59 51.71 133.59 51.91 134.52 52.31 135.43 52.7 136.12 53.21 136.59 53.85 136.82 54.17 137.01 54.52 137.17 54.9 137.33 55.28 137.45 55.69 137.55 56.12 137.61 56.41 137.65 56.79 137.68 57.29 137.71 57.79 137.72 58.39 137.72 59.11L137.72 70.27 134.64 70.27 134.64 59.23C134.64 57.98 134.52 57.04 134.28 56.43 134.04 55.8 133.61 55.31 133 54.94 132.4 54.56 131.68 54.38 130.86 54.38 129.54 54.38 128.4 54.8 127.46 55.63 126.51 56.47 126.04 58.05 126.04 60.36L126.04 70.27 122.96 70.27Z" fill="#921C1D"/><path d="M146.69 70.24C145.85 70.42 145.07 70.51 144.37 70.51 143.25 70.51 142.39 70.33 141.77 69.98 141.15 69.63 140.72 69.17 140.47 68.6 140.22 68.03 140.09 66.82 140.09 64.96L140.09 54.52 137.83 54.52 137.83 52.13 140.09 52.13 140.09 47.63 143.15 45.78 143.15 52.12 146.24 52.12 146.24 54.51 143.15 54.51 143.15 65.12C143.15 66 143.2 66.56 143.3 66.81 143.41 67.06 143.59 67.26 143.83 67.41 144.08 67.56 144.43 67.63 144.89 67.63 145.06 67.63 145.26 67.63 145.48 67.6 145.7 67.58 145.96 67.55 146.24 67.51L146.68 70.23Z" fill="#921C1D"/><path d="M163.76 64.82C163.25 66.69 162.32 68.13 160.97 69.15 159.63 70.17 157.89 70.68 155.77 70.68 153.11 70.68 151.01 69.87 149.45 68.24 147.9 66.61 147.13 64.32 147.13 61.35 147.13 58.38 147.92 55.94 149.49 54.24 151.06 52.55 153.1 51.71 155.61 51.71 158.12 51.71 160.02 52.54 161.56 54.19 163.1 55.85 163.87 58.18 163.87 61.16L163.87 61.5C163.87 61.64 163.87 61.8 163.85 61.98L150.31 61.98C150.42 63.97 150.99 65.5 152 66.56 153 67.62 154.27 68.15 155.79 68.15 156.92 68.15 157.88 67.85 158.68 67.26 159.48 66.67 160.11 65.72 160.58 64.42L163.76 64.81ZM160.62 59.45C160.48 57.94 160.1 56.79 159.46 56.02 158.48 54.84 157.21 54.24 155.65 54.24 154.25 54.24 153.06 54.71 152.08 55.66 151.12 56.61 150.59 57.87 150.49 59.45L160.62 59.45Z" fill="#921C1D"/><path d="M165.73 70.27 165.73 52.12 168.5 52.12 168.5 54.87C169.21 53.58 169.86 52.73 170.45 52.32 171.04 51.91 171.7 51.7 172.43 51.7 173.47 51.7 174.52 52.03 175.59 52.69L174.53 55.54C173.78 55.1 173.03 54.87 172.27 54.87 171.59 54.87 170.98 55.07 170.45 55.48 169.92 55.88 169.54 56.45 169.31 57.16 168.97 58.25 168.8 59.45 168.8 60.75L168.8 70.25 165.72 70.25Z" fill="#921C1D"/><path d="M196.16 70.24C195.32 70.42 194.54 70.51 193.84 70.51 192.72 70.51 191.86 70.33 191.24 69.98 190.62 69.63 190.19 69.17 189.94 68.6 189.69 68.03 189.56 66.82 189.56 64.96L189.56 54.52 187.3 54.52 187.3 52.13 189.56 52.13 189.56 47.63 192.62 45.78 192.62 52.12 195.71 52.12 195.71 54.51 192.62 54.51 192.62 65.12C192.62 66 192.67 66.56 192.77 66.81 192.88 67.06 193.06 67.26 193.3 67.41 193.55 67.56 193.9 67.63 194.36 67.63 194.53 67.63 194.73 67.63 194.95 67.6 195.17 67.58 195.43 67.55 195.71 67.51L196.15 70.23Z" fill="#921C1D"/><path d="M197.62 70.27 197.62 45.22 200.7 45.22 200.7 54.21C202.14 52.55 203.95 51.71 206.13 51.71 207.47 51.71 208.64 51.97 209.63 52.5 210.62 53.03 211.33 53.76 211.75 54.7 212.18 55.66 212.4 57.01 212.4 58.77L212.4 70.27 209.32 70.27 209.32 58.77C209.32 57.23 208.99 56.11 208.32 55.41 207.65 54.71 206.71 54.36 205.49 54.36 204.57 54.36 203.71 54.6 202.91 55.08 202.12 55.54 201.55 56.17 201.2 56.99 200.86 57.8 200.69 58.92 200.69 60.34L200.69 70.27 197.61 70.27Z" fill="#921C1D"/><path d="M230.1 64.82C229.59 66.69 228.66 68.13 227.31 69.15 225.97 70.17 224.23 70.68 222.11 70.68 219.45 70.68 217.35 69.87 215.79 68.24 214.24 66.61 213.47 64.32 213.47 61.35 213.47 58.38 214.26 55.94 215.83 54.24 217.4 52.55 219.44 51.71 221.95 51.71 224.46 51.71 226.36 52.54 227.9 54.19 229.44 55.85 230.21 58.18 230.21 61.16L230.21 61.5C230.21 61.64 230.21 61.8 230.19 61.98L216.65 61.98C216.76 63.97 217.33 65.5 218.34 66.56 219.34 67.62 220.61 68.15 222.13 68.15 223.26 68.15 224.22 67.85 225.02 67.26 225.82 66.67 226.45 65.72 226.92 64.42L230.1 64.81ZM226.96 59.45C226.82 57.94 226.44 56.79 225.8 56.02 224.82 54.84 223.55 54.24 221.99 54.24 220.59 54.24 219.4 54.71 218.42 55.66 217.46 56.61 216.93 57.87 216.83 59.45L226.96 59.45Z" fill="#921C1D"/><path d="M255.38 68.03C254.23 69.01 253.13 69.69 252.08 70.08 251.02 70.48 249.89 70.68 248.7 70.68 246.71 70.68 245.17 70.2 244.1 69.23 243.03 68.26 242.49 67.01 242.49 65.49 242.49 64.81 242.61 64.18 242.84 63.61 243.07 63.04 243.39 62.53 243.79 62.09 244.19 61.65 244.66 61.27 245.19 60.96 245.72 60.65 246.3 60.42 246.9 60.28 247.49 60.13 248.4 59.98 249.63 59.82 252.08 59.53 253.91 59.18 255.12 58.76 255.13 58.54 255.14 58.37 255.14 58.24L255.14 57.96C255.14 56.71 254.85 55.82 254.27 55.31 253.49 54.61 252.33 54.27 250.77 54.27 249.32 54.27 248.25 54.53 247.56 55.04 246.88 55.54 246.37 56.44 246.04 57.72L243.03 57.31C243.3 56.02 243.75 54.98 244.38 54.19 245.01 53.4 245.91 52.79 247.1 52.37 248.3 51.94 249.67 51.72 251.22 51.72 252.77 51.72 254.03 51.9 255 52.27 255.97 52.63 256.68 53.1 257.14 53.65 257.58 54.17 257.9 54.87 258.1 55.73 258.2 56.27 258.25 57.21 258.25 58.57L258.25 62.67C258.25 64.11 258.27 65.27 258.3 66.17 258.33 67.07 258.38 67.71 258.44 68.1 258.58 68.86 258.84 69.59 259.23 70.27L256.02 70.27C255.7 69.64 255.5 68.9 255.4 68.03ZM255.12 61.16C254.56 61.39 253.87 61.6 253.04 61.79 252.21 61.98 251.23 62.16 250.1 62.32 248.85 62.5 247.95 62.71 247.42 62.94 246.91 63.16 246.5 63.49 246.21 63.95 245.92 64.37 245.78 64.86 245.78 65.4 245.78 65.81 245.86 66.19 246.01 66.55 246.16 66.9 246.39 67.21 246.7 67.46 247.01 67.72 247.39 67.92 247.85 68.06 248.31 68.2 248.84 68.27 249.44 68.27 250.04 68.27 250.6 68.2 251.13 68.06 251.67 67.92 252.16 67.73 252.6 67.48 253.04 67.23 253.44 66.93 253.79 66.57 254.14 66.21 254.42 65.81 254.64 65.36 254.97 64.64 255.14 63.62 255.14 62.28L255.14 61.15Z" fill="#921C1D"/><path d="M260.86 70.27 260.86 52.12 263.63 52.12 263.63 54.7C264.96 52.71 266.89 51.71 269.41 51.71 270.49 51.71 271.49 51.91 272.42 52.31 273.33 52.7 274.02 53.21 274.49 53.85 274.72 54.17 274.91 54.52 275.07 54.9 275.23 55.28 275.36 55.69 275.45 56.12 275.51 56.41 275.55 56.79 275.58 57.29 275.61 57.79 275.62 58.39 275.62 59.11L275.62 70.27 272.54 70.27 272.54 59.23C272.54 57.98 272.42 57.04 272.18 56.43 271.94 55.8 271.51 55.31 270.9 54.94 270.3 54.56 269.58 54.38 268.76 54.38 267.44 54.38 266.3 54.8 265.36 55.63 264.41 56.47 263.94 58.05 263.94 60.36L263.94 70.27 260.86 70.27Z" fill="#921C1D"/><path d="M279.24 64.38C279.41 65.61 279.88 66.55 280.66 67.19 281.44 67.83 282.53 68.16 283.94 68.16 285.35 68.16 286.39 67.87 287.08 67.31 287.76 66.73 288.11 66.05 288.11 65.28 288.11 64.59 287.81 64.04 287.2 63.64 286.78 63.38 285.73 63.03 284.06 62.6 281.81 62.04 280.25 61.55 279.36 61.13 278.49 60.71 277.83 60.13 277.38 59.4 276.94 58.67 276.71 57.86 276.71 56.96 276.71 56.14 276.89 55.39 277.26 54.7 277.62 54.02 278.13 53.45 278.78 52.99 279.02 52.82 279.3 52.66 279.63 52.5 279.96 52.35 280.33 52.21 280.72 52.1 281.11 51.99 281.54 51.89 281.99 51.83 282.44 51.77 282.9 51.73 283.38 51.73 284.82 51.73 286.07 51.93 287.14 52.34 288.21 52.75 289 53.31 289.52 54.02 290.04 54.74 290.4 55.67 290.58 56.82L287.57 57.23C287.43 56.3 287.04 55.57 286.39 55.04 285.74 54.51 284.81 54.25 283.6 54.25 282.19 54.25 281.18 54.48 280.57 54.95 279.97 55.42 279.66 55.96 279.66 56.59 279.66 56.99 279.78 57.35 280.04 57.67 280.29 58 280.68 58.27 281.22 58.49 281.38 58.55 281.68 58.64 282.13 58.77 282.58 58.9 283.18 59.07 283.93 59.27 286.12 59.85 287.63 60.33 288.48 60.71 289.32 61.06 290 61.6 290.51 62.32 291 63.02 291.25 63.89 291.25 64.95 291.25 66.01 290.95 66.94 290.34 67.86 289.73 68.78 288.88 69.47 287.76 69.96 286.64 70.45 285.37 70.7 283.93 70.7 281.57 70.7 279.77 70.21 278.54 69.23 277.31 68.25 276.52 66.8 276.17 64.87L279.21 64.39Z" fill="#921C1D"/><path d="M295.86 70.27 290.31 52.12 293.49 52.12 296.38 62.6 297.46 66.5 298.4 62.76 301.29 52.13 304.45 52.13 307.17 62.66 308.08 66.13 309.12 62.63 312.23 52.14 315.22 52.14 309.55 70.29 306.35 70.29 303.46 59.42 302.76 56.33 299.09 70.29 295.88 70.29Z" fill="#921C1D"/><path d="M332 64.82C331.49 66.69 330.56 68.13 329.21 69.15 327.86 70.17 326.13 70.68 324.01 70.68 321.36 70.68 319.25 69.87 317.69 68.24 316.14 66.61 315.37 64.32 315.37 61.35 315.37 58.38 316.16 55.94 317.73 54.24 319.3 52.55 321.34 51.71 323.85 51.71 326.36 51.71 328.26 52.54 329.8 54.19 331.34 55.85 332.11 58.18 332.11 61.16L332.11 61.5C332.11 61.64 332.11 61.8 332.09 61.98L318.55 61.98C318.66 63.97 319.23 65.5 320.24 66.56 321.24 67.62 322.51 68.15 324.03 68.15 325.16 68.15 326.12 67.85 326.92 67.26 327.72 66.67 328.35 65.72 328.82 64.42L332 64.81ZM328.86 59.45C328.72 57.94 328.34 56.79 327.7 56.02 326.72 54.84 325.45 54.24 323.89 54.24 322.49 54.24 321.3 54.71 320.32 55.66 319.36 56.61 318.83 57.87 318.73 59.45L328.86 59.45Z" fill="#921C1D"/><path d="M333.97 70.27 333.97 52.12 336.74 52.12 336.74 54.87C337.45 53.58 338.1 52.73 338.69 52.32 339.28 51.91 339.94 51.7 340.67 51.7 341.71 51.7 342.76 52.03 343.83 52.69L342.77 55.54C342.02 55.1 341.27 54.87 340.51 54.87 339.83 54.87 339.22 55.07 338.69 55.48 338.16 55.88 337.78 56.45 337.55 57.16 337.21 58.25 337.04 59.45 337.04 60.75L337.04 70.25 333.96 70.25Z" fill="#921C1D"/></g><g><path d="M101.43 68.5 101.43 43.45 119.55 43.45 119.55 46.41 104.75 46.41 104.75 54.08 118.61 54.08 118.61 57.02 104.75 57.02 104.75 65.55 120.13 65.55 120.13 68.51 101.43 68.51Z" fill="#FFFFFF"/><path d="M121.95 68.5 121.95 50.35 124.72 50.35 124.72 52.93C126.05 50.94 127.98 49.94 130.5 49.94 131.58 49.94 132.58 50.14 133.51 50.54 134.42 50.93 135.11 51.44 135.58 52.08 135.81 52.4 136 52.75 136.16 53.13 136.32 53.51 136.44 53.92 136.54 54.35 136.6 54.64 136.64 55.02 136.67 55.52 136.7 56.02 136.71 56.62 136.71 57.34L136.71 68.5 133.63 68.5 133.63 57.46C133.63 56.21 133.51 55.27 133.27 54.66 133.03 54.03 132.6 53.54 131.99 53.17 131.39 52.79 130.67 52.61 129.85 52.61 128.53 52.61 127.39 53.03 126.45 53.86 125.5 54.7 125.03 56.28 125.03 58.59L125.03 68.5 121.95 68.5Z" fill="#FFFFFF"/><path d="M145.68 68.47C144.84 68.65 144.06 68.74 143.36 68.74 142.24 68.74 141.38 68.56 140.76 68.21 140.14 67.86 139.71 67.4 139.46 66.83 139.21 66.26 139.08 65.05 139.08 63.19L139.08 52.75 136.82 52.75 136.82 50.36 139.08 50.36 139.08 45.86 142.14 44.01 142.14 50.35 145.23 50.35 145.23 52.74 142.14 52.74 142.14 63.35C142.14 64.23 142.19 64.79 142.29 65.04 142.4 65.29 142.58 65.49 142.82 65.64 143.07 65.79 143.42 65.86 143.88 65.86 144.05 65.86 144.25 65.86 144.47 65.83 144.69 65.81 144.95 65.78 145.23 65.74L145.67 68.46Z" fill="#FFFFFF"/><path d="M162.75 63.05C162.24 64.92 161.31 66.36 159.96 67.38 158.62 68.4 156.88 68.91 154.76 68.91 152.1 68.91 150 68.1 148.44 66.47 146.89 64.84 146.12 62.55 146.12 59.58 146.12 56.61 146.91 54.17 148.48 52.47 150.05 50.78 152.09 49.94 154.6 49.94 157.11 49.94 159.01 50.77 160.55 52.42 162.09 54.08 162.86 56.41 162.86 59.39L162.86 59.73C162.86 59.87 162.86 60.03 162.84 60.21L149.3 60.21C149.41 62.2 149.98 63.73 150.99 64.79 151.99 65.85 153.26 66.38 154.78 66.38 155.91 66.38 156.87 66.08 157.67 65.49 158.47 64.9 159.1 63.95 159.57 62.65L162.75 63.04ZM159.61 57.68C159.47 56.17 159.09 55.02 158.45 54.25 157.47 53.07 156.2 52.47 154.64 52.47 153.24 52.47 152.05 52.94 151.07 53.89 150.11 54.84 149.58 56.1 149.48 57.68L159.61 57.68Z" fill="#FFFFFF"/><path d="M164.72 68.5 164.72 50.35 167.49 50.35 167.49 53.1C168.2 51.81 168.85 50.96 169.44 50.55 170.03 50.14 170.69 49.93 171.42 49.93 172.46 49.93 173.51 50.26 174.58 50.92L173.52 53.77C172.77 53.33 172.02 53.1 171.26 53.1 170.58 53.1 169.97 53.3 169.44 53.71 168.91 54.11 168.53 54.68 168.3 55.39 167.96 56.48 167.79 57.68 167.79 58.98L167.79 68.48 164.71 68.48Z" fill="#FFFFFF"/><path d="M195.15 68.47C194.31 68.65 193.53 68.74 192.83 68.74 191.71 68.74 190.85 68.56 190.23 68.21 189.61 67.86 189.18 67.4 188.93 66.83 188.68 66.26 188.55 65.05 188.55 63.19L188.55 52.75 186.29 52.75 186.29 50.36 188.55 50.36 188.55 45.86 191.61 44.01 191.61 50.35 194.7 50.35 194.7 52.74 191.61 52.74 191.61 63.35C191.61 64.23 191.66 64.79 191.76 65.04 191.87 65.29 192.05 65.49 192.29 65.64 192.54 65.79 192.89 65.86 193.35 65.86 193.52 65.86 193.72 65.86 193.94 65.83 194.16 65.81 194.42 65.78 194.7 65.74L195.14 68.46Z" fill="#FFFFFF"/><path d="M196.61 68.5 196.61 43.45 199.69 43.45 199.69 52.44C201.13 50.78 202.94 49.94 205.12 49.94 206.46 49.94 207.63 50.2 208.62 50.73 209.61 51.26 210.32 51.99 210.74 52.93 211.17 53.89 211.39 55.24 211.39 57L211.39 68.5 208.31 68.5 208.31 57C208.31 55.46 207.98 54.34 207.31 53.64 206.64 52.94 205.7 52.59 204.48 52.59 203.56 52.59 202.7 52.83 201.9 53.31 201.11 53.77 200.54 54.4 200.19 55.22 199.85 56.03 199.68 57.15 199.68 58.57L199.68 68.5 196.6 68.5Z" fill="#FFFFFF"/><path d="M229.09 63.05C228.58 64.92 227.65 66.36 226.3 67.38 224.96 68.4 223.22 68.91 221.1 68.91 218.44 68.91 216.34 68.1 214.78 66.47 213.23 64.84 212.46 62.55 212.46 59.58 212.46 56.61 213.25 54.17 214.82 52.47 216.39 50.78 218.43 49.94 220.94 49.94 223.45 49.94 225.35 50.77 226.89 52.42 228.43 54.08 229.2 56.41 229.2 59.39L229.2 59.73C229.2 59.87 229.2 60.03 229.18 60.21L215.64 60.21C215.75 62.2 216.32 63.73 217.33 64.79 218.33 65.85 219.6 66.38 221.12 66.38 222.25 66.38 223.21 66.08 224.01 65.49 224.81 64.9 225.44 63.95 225.91 62.65L229.09 63.04ZM225.95 57.68C225.81 56.17 225.43 55.02 224.79 54.25 223.81 53.07 222.54 52.47 220.98 52.47 219.58 52.47 218.39 52.94 217.41 53.89 216.45 54.84 215.92 56.1 215.82 57.68L225.95 57.68Z" fill="#FFFFFF"/><path d="M254.37 66.26C253.22 67.24 252.12 67.92 251.07 68.31 250.01 68.71 248.88 68.91 247.69 68.91 245.7 68.91 244.16 68.43 243.09 67.46 242.02 66.49 241.48 65.24 241.48 63.72 241.48 63.04 241.6 62.41 241.83 61.84 242.06 61.27 242.38 60.76 242.78 60.32 243.18 59.88 243.65 59.5 244.18 59.19 244.71 58.88 245.29 58.65 245.89 58.51 246.48 58.36 247.39 58.21 248.62 58.05 251.07 57.76 252.9 57.41 254.11 56.99 254.12 56.77 254.13 56.6 254.13 56.47L254.13 56.19C254.13 54.94 253.84 54.05 253.26 53.54 252.48 52.84 251.32 52.5 249.76 52.5 248.31 52.5 247.24 52.76 246.55 53.27 245.87 53.77 245.36 54.67 245.03 55.95L242.02 55.54C242.29 54.25 242.74 53.21 243.37 52.42 244 51.63 244.9 51.02 246.09 50.6 247.29 50.17 248.66 49.95 250.21 49.95 251.76 49.95 253.02 50.13 253.99 50.5 254.96 50.86 255.67 51.33 256.13 51.88 256.57 52.4 256.89 53.1 257.09 53.96 257.19 54.5 257.24 55.44 257.24 56.8L257.24 60.9C257.24 62.34 257.26 63.5 257.29 64.4 257.32 65.3 257.37 65.94 257.43 66.33 257.57 67.09 257.83 67.82 258.22 68.5L255.01 68.5C254.69 67.87 254.49 67.13 254.39 66.26ZM254.11 59.39C253.55 59.62 252.86 59.83 252.03 60.02 251.2 60.21 250.22 60.39 249.09 60.55 247.84 60.73 246.94 60.94 246.41 61.17 245.9 61.39 245.49 61.72 245.2 62.18 244.91 62.6 244.77 63.09 244.77 63.63 244.77 64.04 244.85 64.42 245 64.78 245.15 65.13 245.38 65.44 245.69 65.69 246 65.95 246.38 66.15 246.84 66.29 247.3 66.43 247.83 66.5 248.43 66.5 249.03 66.5 249.59 66.43 250.12 66.29 250.66 66.15 251.15 65.96 251.59 65.71 252.03 65.46 252.43 65.16 252.78 64.8 253.13 64.44 253.41 64.04 253.63 63.59 253.96 62.87 254.13 61.85 254.13 60.51L254.13 59.38Z" fill="#FFFFFF"/><path d="M259.85 68.5 259.85 50.35 262.62 50.35 262.62 52.93C263.95 50.94 265.88 49.94 268.4 49.94 269.48 49.94 270.48 50.14 271.41 50.54 272.32 50.93 273.01 51.44 273.48 52.08 273.71 52.4 273.9 52.75 274.06 53.13 274.22 53.51 274.35 53.92 274.44 54.35 274.5 54.64 274.54 55.02 274.57 55.52 274.6 56.02 274.61 56.62 274.61 57.34L274.61 68.5 271.53 68.5 271.53 57.46C271.53 56.21 271.41 55.27 271.17 54.66 270.93 54.03 270.5 53.54 269.89 53.17 269.29 52.79 268.57 52.61 267.75 52.61 266.43 52.61 265.29 53.03 264.35 53.86 263.4 54.7 262.93 56.28 262.93 58.59L262.93 68.5 259.85 68.5Z" fill="#FFFFFF"/><path d="M278.23 62.61C278.4 63.84 278.87 64.78 279.65 65.42 280.43 66.06 281.52 66.39 282.93 66.39 284.34 66.39 285.38 66.1 286.07 65.54 286.75 64.96 287.1 64.28 287.1 63.51 287.1 62.82 286.8 62.27 286.19 61.87 285.77 61.61 284.72 61.26 283.05 60.83 280.8 60.27 279.24 59.78 278.35 59.36 277.48 58.94 276.82 58.36 276.37 57.63 275.93 56.9 275.7 56.09 275.7 55.19 275.7 54.37 275.88 53.62 276.25 52.93 276.61 52.25 277.12 51.68 277.77 51.22 278.01 51.05 278.29 50.89 278.62 50.73 278.95 50.58 279.32 50.44 279.71 50.33 280.1 50.22 280.53 50.12 280.98 50.06 281.43 50 281.89 49.96 282.37 49.96 283.81 49.96 285.06 50.16 286.13 50.57 287.2 50.98 287.99 51.54 288.51 52.25 289.03 52.97 289.39 53.9 289.57 55.05L286.56 55.46C286.42 54.53 286.03 53.8 285.38 53.27 284.73 52.74 283.8 52.48 282.59 52.48 281.18 52.48 280.17 52.71 279.56 53.18 278.96 53.65 278.65 54.19 278.65 54.82 278.65 55.22 278.77 55.58 279.03 55.9 279.28 56.23 279.67 56.5 280.21 56.72 280.37 56.78 280.67 56.87 281.12 57 281.57 57.13 282.17 57.3 282.92 57.5 285.11 58.08 286.62 58.56 287.47 58.94 288.31 59.29 288.99 59.83 289.5 60.55 289.99 61.25 290.24 62.12 290.24 63.18 290.24 64.24 289.94 65.17 289.33 66.09 288.72 67.01 287.87 67.7 286.75 68.19 285.63 68.68 284.36 68.93 282.92 68.93 280.56 68.93 278.76 68.44 277.53 67.46 276.3 66.48 275.51 65.03 275.16 63.1L278.2 62.62Z" fill="#FFFFFF"/><path d="M294.85 68.5 289.3 50.35 292.48 50.35 295.37 60.83 296.45 64.73 297.39 60.99 300.28 50.36 303.44 50.36 306.16 60.89 307.07 64.36 308.11 60.86 311.22 50.37 314.21 50.37 308.54 68.52 305.34 68.52 302.45 57.65 301.75 54.56 298.08 68.52 294.87 68.52Z" fill="#FFFFFF"/><path d="M330.99 63.05C330.48 64.92 329.55 66.36 328.2 67.38 326.85 68.4 325.12 68.91 323 68.91 320.35 68.91 318.24 68.1 316.68 66.47 315.13 64.84 314.36 62.55 314.36 59.58 314.36 56.61 315.15 54.17 316.72 52.47 318.29 50.78 320.33 49.94 322.84 49.94 325.35 49.94 327.25 50.77 328.79 52.42 330.33 54.08 331.1 56.41 331.1 59.39L331.1 59.73C331.1 59.87 331.1 60.03 331.08 60.21L317.54 60.21C317.65 62.2 318.22 63.73 319.23 64.79 320.23 65.85 321.5 66.38 323.02 66.38 324.15 66.38 325.11 66.08 325.91 65.49 326.71 64.9 327.34 63.95 327.81 62.65L330.99 63.04ZM327.85 57.68C327.71 56.17 327.33 55.02 326.69 54.25 325.71 53.07 324.44 52.47 322.88 52.47 321.48 52.47 320.29 52.94 319.31 53.89 318.35 54.84 317.82 56.1 317.72 57.68L327.85 57.68Z" fill="#FFFFFF"/><path d="M332.96 68.5 332.96 50.35 335.73 50.35 335.73 53.1C336.44 51.81 337.09 50.96 337.68 50.55 338.27 50.14 338.93 49.93 339.66 49.93 340.7 49.93 341.75 50.26 342.82 50.92L341.76 53.77C341.01 53.33 340.26 53.1 339.5 53.1 338.82 53.1 338.21 53.3 337.68 53.71 337.15 54.11 336.77 54.68 336.54 55.39 336.2 56.48 336.03 57.68 336.03 58.98L336.03 68.48 332.95 68.48Z" fill="#FFFFFF"/></g></svg>