<svg viewBox="0 0 113.85 24.86" xmlns="http://www.w3.org/2000/svg" xmlns:xlink="http://www.w3.org/1999/xlink" id="Layer_1" overflow="hidden"><defs></defs><path d="M6.79 0.4 6.79 8.4 4.33 8.4 4.33 5.29 2.45 5.29 2.45 8.4 0 8.4 0 0.4 2.46 0.4 2.46 3.35 4.34 3.35 4.34 0.4 6.8 0.4Z" fill="#DFA126"/><path d="M12.03 6.26 14.21 6.41C14.08 7 13.75 7.49 13.22 7.91 12.69 8.33 11.97 8.53 11.07 8.53 10.07 8.53 9.27 8.24 8.67 7.66 8.07 7.08 7.77 6.36 7.77 5.5 7.77 4.64 8.06 3.86 8.65 3.24 9.24 2.62 10.03 2.32 11.01 2.32 11.99 2.32 12.73 2.61 13.32 3.19 13.91 3.77 14.2 4.56 14.2 5.55 14.2 5.63 14.2 5.75 14.2 5.89L10.21 5.89C10.21 6.27 10.28 6.54 10.41 6.72 10.54 6.9 10.77 6.99 11.12 6.99 11.63 6.99 11.93 6.75 12.02 6.26ZM11.87 4.71C11.87 4.31 11.79 4.04 11.63 3.9 11.47 3.76 11.28 3.69 11.04 3.69 10.49 3.69 10.21 4.03 10.21 4.71L11.87 4.71Z" fill="#DFA126"/><path d="M17.37 8.4 15.13 8.4 15.13 2.44 17.08 2.44 17.08 3.67C17.3 2.78 17.82 2.33 18.63 2.33 18.71 2.33 18.83 2.33 18.97 2.35L18.97 4.43C18.81 4.39 18.66 4.37 18.53 4.37 17.76 4.37 17.37 4.8 17.37 5.66L17.37 8.39Z" fill="#DFA126"/><path d="M23.64 6.26 25.82 6.41C25.69 7 25.36 7.49 24.83 7.91 24.3 8.33 23.58 8.53 22.68 8.53 21.68 8.53 20.88 8.24 20.28 7.66 19.68 7.08 19.38 6.36 19.38 5.5 19.38 4.64 19.67 3.86 20.26 3.24 20.85 2.62 21.64 2.32 22.62 2.32 23.6 2.32 24.34 2.61 24.93 3.19 25.52 3.77 25.81 4.56 25.81 5.55 25.81 5.63 25.81 5.75 25.81 5.89L21.82 5.89C21.82 6.27 21.89 6.54 22.02 6.72 22.15 6.9 22.38 6.99 22.73 6.99 23.24 6.99 23.54 6.75 23.63 6.26ZM23.48 4.71C23.48 4.31 23.4 4.04 23.24 3.9 23.08 3.76 22.89 3.69 22.65 3.69 22.1 3.69 21.82 4.03 21.82 4.71L23.48 4.71Z" fill="#DFA126"/><path d="M32.08 0.15 32.08 2 29.74 2 29.74 0.15 32.08 0.15ZM32.08 2.44 32.08 8.4 29.74 8.4 29.74 2.44 32.08 2.44Z" fill="#DFA126"/><path d="M32.78 6.71 34.63 6.46C34.74 6.89 35.15 7.1 35.88 7.1 36.49 7.1 36.79 6.98 36.79 6.75 36.79 6.65 36.73 6.57 36.61 6.51 36.49 6.45 36.22 6.4 35.78 6.34 34.57 6.17 33.81 5.91 33.51 5.55 33.21 5.19 33.06 4.8 33.06 4.36 33.06 3.75 33.31 3.26 33.82 2.88 34.33 2.5 34.99 2.31 35.82 2.31 37.27 2.31 38.19 2.83 38.59 3.87L36.82 4.2C36.66 3.85 36.31 3.67 35.78 3.67 35.53 3.67 35.34 3.7 35.22 3.77 35.1 3.84 35.04 3.91 35.04 3.97 35.04 4.17 35.23 4.28 35.6 4.33 36.58 4.44 37.24 4.55 37.59 4.66 37.94 4.77 38.23 4.98 38.48 5.28 38.73 5.58 38.85 5.94 38.85 6.37 38.85 7.02 38.58 7.54 38.03 7.92 37.49 8.3 36.73 8.49 35.78 8.49 34.17 8.49 33.17 7.89 32.79 6.68Z" fill="#DFA126"/><path d="M46.35 2.44 46.35 3.96 45.16 3.96 45.16 6.16C45.16 6.46 45.22 6.64 45.33 6.7 45.44 6.76 45.56 6.78 45.68 6.78 45.87 6.78 46.09 6.75 46.35 6.68L46.35 8.34C45.89 8.43 45.44 8.47 44.99 8.47 44.27 8.47 43.74 8.32 43.41 8.01 43.08 7.7 42.9 7.21 42.9 6.53L42.9 5.83C42.9 5.83 42.9 3.95 42.9 3.95L42.01 3.95 42.01 2.43 42.9 2.43 42.94 0.49 45.16 0.45 45.16 2.42 46.35 2.42Z" fill="#DFA126"/><path d="M52.98 8.4 50.64 8.4 50.64 4.81C50.64 4.48 50.6 4.26 50.53 4.13 50.46 4 50.32 3.95 50.11 3.95 49.95 3.95 49.81 4 49.69 4.09 49.57 4.19 49.5 4.28 49.48 4.39 49.46 4.49 49.45 4.7 49.45 5.03L49.45 8.4 47.11 8.4 47.11 0.4 49.45 0.4 49.45 3.15C49.87 2.6 50.42 2.32 51.1 2.32 51.44 2.32 51.75 2.38 52.01 2.5 52.27 2.62 52.47 2.77 52.61 2.96 52.75 3.15 52.85 3.33 52.89 3.5 52.93 3.67 52.96 4.02 52.96 4.52L52.96 8.4Z" fill="#DFA126"/><path d="M58.15 6.26 60.33 6.41C60.2 7 59.87 7.49 59.34 7.91 58.81 8.33 58.09 8.53 57.19 8.53 56.19 8.53 55.39 8.24 54.79 7.66 54.19 7.08 53.89 6.36 53.89 5.5 53.89 4.64 54.18 3.86 54.77 3.24 55.36 2.62 56.15 2.32 57.13 2.32 58.11 2.32 58.85 2.61 59.44 3.19 60.03 3.77 60.32 4.56 60.32 5.55 60.32 5.63 60.32 5.75 60.32 5.89L56.33 5.89C56.33 6.27 56.4 6.54 56.53 6.72 56.66 6.9 56.89 6.99 57.24 6.99 57.75 6.99 58.05 6.75 58.14 6.26ZM57.99 4.71C57.99 4.31 57.91 4.04 57.75 3.9 57.59 3.76 57.4 3.69 57.16 3.69 56.61 3.69 56.33 4.03 56.33 4.71L57.99 4.71Z" fill="#DFA126"/><path d="M66.59 10.28 64.25 10.28 64.25 2.44 66.4 2.44 66.4 3.28C66.7 2.64 67.26 2.31 68.08 2.31 68.79 2.31 69.35 2.59 69.75 3.14 70.15 3.69 70.35 4.45 70.35 5.4 70.35 6.35 70.14 7.11 69.73 7.67 69.32 8.23 68.77 8.51 68.1 8.51 67.43 8.51 66.93 8.26 66.58 7.75L66.58 10.27ZM66.59 6.22C66.59 6.49 66.65 6.69 66.77 6.84 66.89 6.99 67.04 7.06 67.22 7.06 67.5 7.06 67.69 6.93 67.8 6.67 67.91 6.41 67.96 6.01 67.96 5.47 67.96 4.85 67.9 4.41 67.78 4.16 67.66 3.91 67.48 3.78 67.24 3.78 67.1 3.78 66.95 3.84 66.81 3.95 66.67 4.06 66.6 4.25 66.6 4.51L66.6 6.22Z" fill="#DFA126"/><path d="M73.59 0.4 73.59 8.4 71.29 8.4 71.29 0.4 73.59 0.4Z" fill="#DFA126"/><path d="M80.83 8.4 78.6 8.4C78.55 8.15 78.52 7.87 78.52 7.57 78.1 8.21 77.46 8.53 76.6 8.53 75.9 8.53 75.37 8.35 75.02 7.99 74.67 7.63 74.5 7.22 74.5 6.75 74.5 6.12 74.79 5.61 75.36 5.22 75.93 4.83 76.95 4.6 78.4 4.52L78.4 4.39C78.4 4.13 78.34 3.95 78.22 3.87 78.1 3.79 77.93 3.74 77.7 3.74 77.16 3.74 76.86 3.96 76.8 4.39L74.67 4.19C74.97 2.94 76.01 2.32 77.78 2.32 78.26 2.32 78.7 2.37 79.1 2.46 79.5 2.55 79.82 2.71 80.06 2.91 80.3 3.11 80.45 3.33 80.53 3.55 80.61 3.77 80.65 4.21 80.65 4.86L80.65 7.24C80.65 7.69 80.71 8.08 80.83 8.4ZM78.4 5.61C77.4 5.72 76.91 6.03 76.91 6.57 76.91 6.93 77.11 7.11 77.5 7.11 77.75 7.11 77.96 7.04 78.14 6.89 78.32 6.74 78.4 6.41 78.4 5.91L78.4 5.62Z" fill="#DFA126"/><path d="M85.45 6 87.44 6.17C87.35 6.87 87.05 7.43 86.56 7.87 86.07 8.31 85.42 8.53 84.61 8.53 83.7 8.53 82.96 8.24 82.39 7.67 81.82 7.1 81.54 6.36 81.54 5.47 81.54 4.58 81.82 3.8 82.39 3.21 82.96 2.62 83.69 2.32 84.59 2.32 85.39 2.32 86.04 2.54 86.55 2.99 87.06 3.44 87.34 4 87.42 4.69L85.38 4.86C85.29 4.23 85.06 3.92 84.67 3.92 84.42 3.92 84.24 4.03 84.12 4.26 84 4.49 83.95 4.89 83.95 5.45 83.95 5.94 84.01 6.3 84.12 6.53 84.23 6.76 84.44 6.88 84.72 6.88 85.14 6.88 85.39 6.59 85.46 6Z" fill="#DFA126"/><path d="M92.07 6.26 94.25 6.41C94.12 7 93.79 7.49 93.26 7.91 92.73 8.33 92.01 8.53 91.11 8.53 90.11 8.53 89.31 8.24 88.71 7.66 88.11 7.08 87.81 6.36 87.81 5.5 87.81 4.64 88.1 3.86 88.69 3.24 89.28 2.62 90.07 2.32 91.05 2.32 92.03 2.32 92.77 2.61 93.36 3.19 93.95 3.77 94.24 4.56 94.24 5.55 94.24 5.63 94.24 5.75 94.24 5.89L90.25 5.89C90.25 6.27 90.32 6.54 90.45 6.72 90.58 6.9 90.81 6.99 91.16 6.99 91.67 6.99 91.97 6.75 92.06 6.26ZM91.91 4.71C91.91 4.31 91.83 4.04 91.67 3.9 91.51 3.76 91.32 3.69 91.08 3.69 90.53 3.69 90.25 4.03 90.25 4.71L91.91 4.71Z" fill="#DFA126"/><path d="M100.69 3.96 100.69 8.4 98.49 8.4 98.49 3.96 97.6 3.96 97.6 2.44 98.49 2.44C98.49 1.95 98.51 1.58 98.55 1.35 98.59 1.12 98.7 0.89 98.87 0.67 99.04 0.45 99.27 0.29 99.56 0.17 99.85 0.05 100.24 -1.94289e-16 100.73 -1.94289e-16 101.25 -1.94289e-16 101.76 0.04 102.24 0.12L102.24 1.65C101.87 1.6 101.59 1.57 101.41 1.57 101.23 1.57 101.06 1.61 100.91 1.68 100.76 1.75 100.68 1.94 100.68 2.22L100.68 2.43 102.2 2.43 102.2 3.95 100.69 3.95Z" fill="#DFA126"/><path d="M105.79 8.53C104.8 8.53 104.02 8.22 103.43 7.61 102.84 7 102.56 6.27 102.56 5.44 102.56 4.55 102.86 3.81 103.47 3.21 104.08 2.61 104.87 2.32 105.84 2.32 106.81 2.32 107.61 2.61 108.2 3.2 108.79 3.79 109.09 4.52 109.09 5.4 109.09 6.28 108.79 7.03 108.18 7.63 107.57 8.23 106.77 8.52 105.77 8.52ZM105.83 7.11C106.19 7.11 106.41 6.92 106.5 6.54 106.59 6.16 106.62 5.77 106.62 5.36 106.62 4.8 106.56 4.4 106.45 4.15 106.34 3.9 106.13 3.78 105.84 3.78 105.57 3.78 105.37 3.91 105.25 4.16 105.13 4.41 105.06 4.83 105.06 5.41 105.06 6.09 105.12 6.55 105.25 6.77 105.38 6.99 105.57 7.1 105.83 7.1Z" fill="#DFA126"/><path d="M112.25 8.4 110.01 8.4 110.01 2.44 111.96 2.44 111.96 3.67C112.18 2.78 112.7 2.33 113.51 2.33 113.59 2.33 113.71 2.33 113.85 2.35L113.85 4.43C113.69 4.39 113.54 4.37 113.41 4.37 112.64 4.37 112.25 4.8 112.25 5.66L112.25 8.39Z" fill="#DFA126"/><path d="M36.67 16.84 34.33 23.3C34.15 23.79 33.89 24.17 33.56 24.45 33.23 24.73 32.71 24.86 32.01 24.86 31.84 24.86 31.45 24.84 30.84 24.81L30.84 23.15C31.14 23.2 31.43 23.22 31.68 23.22 32.35 23.22 32.69 23.07 32.69 22.77 32.69 22.67 32.66 22.54 32.59 22.37L30.45 16.84 32.95 16.84 33.94 20.02 34.97 16.84 36.68 16.84Z" fill="#DFA126"/><path d="M39.96 22.93C38.97 22.93 38.19 22.62 37.6 22.01 37.01 21.4 36.73 20.67 36.73 19.84 36.73 18.95 37.03 18.21 37.64 17.61 38.25 17.01 39.04 16.72 40.01 16.72 40.98 16.72 41.78 17.01 42.37 17.6 42.96 18.19 43.26 18.92 43.26 19.8 43.26 20.68 42.96 21.43 42.35 22.03 41.74 22.63 40.94 22.92 39.94 22.92ZM40 21.51C40.36 21.51 40.58 21.32 40.67 20.94 40.76 20.56 40.79 20.17 40.79 19.76 40.79 19.2 40.73 18.8 40.62 18.55 40.51 18.3 40.3 18.18 40.01 18.18 39.74 18.18 39.54 18.31 39.42 18.56 39.3 18.81 39.23 19.23 39.23 19.81 39.23 20.49 39.29 20.95 39.42 21.17 39.55 21.39 39.74 21.5 40 21.5Z" fill="#DFA126"/><path d="M49.97 16.84 49.97 22.8 47.81 22.8 47.81 21.82C47.49 22.55 46.88 22.92 45.96 22.92 45.39 22.92 44.96 22.76 44.64 22.45 44.32 22.14 44.17 21.69 44.17 21.1L44.17 16.84 46.51 16.84 46.51 20.59C46.51 20.82 46.54 20.99 46.61 21.09 46.68 21.19 46.8 21.23 46.99 21.23 47.19 21.23 47.35 21.16 47.48 21.02 47.61 20.88 47.67 20.68 47.67 20.42L47.67 16.85 49.98 16.85Z" fill="#DFA126"/><path d="M53.44 22.8 51.2 22.8 51.2 16.84 53.15 16.84 53.15 18.07C53.37 17.18 53.89 16.73 54.7 16.73 54.78 16.73 54.9 16.73 55.04 16.75L55.04 18.83C54.88 18.79 54.73 18.77 54.6 18.77 53.83 18.77 53.44 19.2 53.44 20.06L53.44 22.79Z" fill="#DFA126"/><path d="M61.08 14.8 61.08 22.8 58.78 22.8 58.78 14.8 61.08 14.8Z" fill="#DFA126"/><path d="M65.22 22.93C64.23 22.93 63.45 22.62 62.86 22.01 62.27 21.4 61.99 20.67 61.99 19.84 61.99 18.95 62.29 18.21 62.9 17.61 63.51 17.01 64.3 16.72 65.27 16.72 66.24 16.72 67.04 17.01 67.63 17.6 68.22 18.19 68.52 18.92 68.52 19.8 68.52 20.68 68.22 21.43 67.61 22.03 67 22.63 66.2 22.92 65.2 22.92ZM65.26 21.51C65.62 21.51 65.84 21.32 65.93 20.94 66.02 20.56 66.05 20.17 66.05 19.76 66.05 19.2 65.99 18.8 65.88 18.55 65.77 18.3 65.56 18.18 65.27 18.18 65 18.18 64.8 18.31 64.68 18.56 64.56 18.81 64.49 19.23 64.49 19.81 64.49 20.49 64.55 20.95 64.68 21.17 64.81 21.39 65 21.5 65.26 21.5Z" fill="#DFA126"/><path d="M75.65 15.49 75.59 17.09 75.48 17.09C75.27 17.07 75.12 17.07 75.03 17.07 74.67 17.07 74.45 17.14 74.37 17.29 74.82 17.66 75.04 18.1 75.04 18.62 75.04 19.23 74.8 19.69 74.32 19.99 73.84 20.29 73.18 20.45 72.35 20.45 72.33 20.45 72.23 20.45 72.05 20.44 71.88 20.44 71.79 20.43 71.78 20.43 71.4 20.43 71.21 20.53 71.21 20.72 71.21 20.89 71.38 20.98 71.71 21L73.63 21.08C74.33 21.11 74.84 21.31 75.17 21.67 75.5 22.03 75.66 22.45 75.66 22.93 75.66 23.5 75.42 23.97 74.93 24.33 74.44 24.69 73.5 24.87 72.09 24.87 69.92 24.87 68.84 24.37 68.84 23.38 68.84 22.84 69.13 22.46 69.7 22.24 69.33 21.98 69.14 21.67 69.14 21.31 69.14 20.72 69.52 20.28 70.28 19.99 69.64 19.71 69.32 19.25 69.32 18.61 69.32 18.02 69.58 17.56 70.09 17.23 70.6 16.9 71.31 16.74 72.21 16.74 72.62 16.74 72.99 16.78 73.33 16.86 73.47 15.93 73.96 15.46 74.81 15.46 75.01 15.46 75.28 15.48 75.64 15.51ZM71.63 22.73C71.54 22.73 71.46 22.73 71.37 22.73 70.97 22.73 70.77 22.85 70.77 23.11 70.77 23.34 70.92 23.49 71.23 23.56 71.54 23.63 71.95 23.66 72.46 23.66 72.94 23.66 73.26 23.62 73.39 23.54 73.52 23.46 73.6 23.34 73.6 23.2 73.6 23.1 73.57 23.01 73.51 22.95 73.45 22.89 73.3 22.84 73.06 22.83L71.63 22.75ZM72.23 19.34C72.68 19.34 72.91 19.1 72.91 18.62 72.91 18.14 72.68 17.88 72.21 17.88 71.74 17.88 71.52 18.13 71.52 18.63 71.52 19.1 71.76 19.34 72.23 19.34Z" fill="#DFA126"/><path d="M79.18 22.93C78.19 22.93 77.41 22.62 76.82 22.01 76.23 21.4 75.95 20.67 75.95 19.84 75.95 18.95 76.25 18.21 76.86 17.61 77.47 17.01 78.26 16.72 79.23 16.72 80.2 16.72 81 17.01 81.59 17.6 82.18 18.19 82.48 18.92 82.48 19.8 82.48 20.68 82.18 21.43 81.57 22.03 80.96 22.63 80.16 22.92 79.16 22.92ZM79.22 21.51C79.58 21.51 79.8 21.32 79.89 20.94 79.98 20.56 80.01 20.17 80.01 19.76 80.01 19.2 79.95 18.8 79.84 18.55 79.73 18.3 79.52 18.18 79.23 18.18 78.96 18.18 78.76 18.31 78.64 18.56 78.52 18.81 78.45 19.23 78.45 19.81 78.45 20.49 78.51 20.95 78.64 21.17 78.77 21.39 78.96 21.5 79.22 21.5Z" fill="#DFA126"/></svg>