<svg viewBox="0 0 124.9 39.08" xmlns="http://www.w3.org/2000/svg" xmlns:xlink="http://www.w3.org/1999/xlink" id="Layer_1" overflow="hidden"><style>
.MsftOfcThm_Accent6_lumMod_50_Fill_v2 {
 fill:#385723; 
}
.MsftOfcThm_Background1_Stroke_v2 {
 stroke:#FFFFFF; 
}
</style>
<defs></defs><path d="M7.27 3.92 7.27 8.4 6.07 8.4C5.97 8.07 5.86 7.79 5.75 7.56 5.25 8.2 4.52 8.52 3.55 8.52 2.52 8.52 1.67 8.16 1.01 7.44 0.35 6.72 0.01 5.74 0.01 4.51 0.01 3.28 0.32 2.32 0.96 1.5 1.6 0.68 2.56 0.28 3.83 0.28 4.78 0.28 5.55 0.52 6.13 1.01 6.71 1.5 7.09 2.18 7.26 3.07L4.88 3.3C4.76 2.47 4.4 2.05 3.78 2.05 2.98 2.05 2.57 2.82 2.57 4.35 2.57 5.28 2.7 5.89 2.96 6.18 3.22 6.47 3.53 6.62 3.9 6.62 4.2 6.62 4.45 6.53 4.66 6.35 4.87 6.17 4.98 5.92 4.98 5.61L3.66 5.61 3.66 3.91 7.26 3.91Z" class="MsftOfcThm_Background1_Stroke_v2 MsftOfcThm_Accent6_lumMod_50_Fill_v2" stroke="#FFFFFF" stroke-width="0.299222" fill="#385723"/><path d="M14.27 2.44 14.27 8.4 12.11 8.4 12.11 7.42C11.79 8.15 11.18 8.52 10.26 8.52 9.69 8.52 9.26 8.36 8.94 8.05 8.62 7.74 8.47 7.29 8.47 6.7L8.47 2.44 10.81 2.44 10.81 6.19C10.81 6.42 10.84 6.59 10.91 6.69 10.98 6.79 11.1 6.83 11.29 6.83 11.49 6.83 11.65 6.76 11.78 6.62 11.91 6.48 11.97 6.28 11.97 6.02L11.97 2.44 14.28 2.44Z" class="MsftOfcThm_Background1_Stroke_v2 MsftOfcThm_Accent6_lumMod_50_Fill_v2" stroke="#FFFFFF" stroke-width="0.299222" fill="#385723"/><path d="M19.44 6.26 21.62 6.41C21.49 7 21.16 7.49 20.63 7.91 20.1 8.33 19.38 8.53 18.48 8.53 17.48 8.53 16.68 8.24 16.08 7.66 15.48 7.08 15.18 6.36 15.18 5.5 15.18 4.64 15.47 3.86 16.06 3.24 16.65 2.62 17.44 2.32 18.42 2.32 19.4 2.32 20.14 2.61 20.73 3.19 21.32 3.77 21.61 4.56 21.61 5.55 21.61 5.63 21.61 5.75 21.61 5.89L17.62 5.89C17.62 6.27 17.69 6.54 17.82 6.72 17.95 6.9 18.18 6.99 18.53 6.99 19.04 6.99 19.34 6.75 19.43 6.26ZM19.28 4.71C19.28 4.31 19.2 4.04 19.04 3.9 18.88 3.76 18.69 3.69 18.45 3.69 17.9 3.69 17.62 4.03 17.62 4.71L19.28 4.71Z" class="MsftOfcThm_Background1_Stroke_v2 MsftOfcThm_Accent6_lumMod_50_Fill_v2" stroke="#FFFFFF" stroke-width="0.299222" fill="#385723"/><path d="M22.01 6.71 23.86 6.46C23.97 6.89 24.38 7.1 25.11 7.1 25.72 7.1 26.02 6.98 26.02 6.75 26.02 6.65 25.96 6.57 25.84 6.51 25.72 6.45 25.45 6.4 25.01 6.34 23.8 6.17 23.04 5.91 22.74 5.55 22.44 5.19 22.29 4.8 22.29 4.36 22.29 3.75 22.54 3.26 23.05 2.88 23.56 2.5 24.22 2.31 25.05 2.31 26.5 2.31 27.42 2.83 27.82 3.87L26.05 4.2C25.89 3.85 25.54 3.67 25.01 3.67 24.76 3.67 24.57 3.7 24.45 3.77 24.33 3.84 24.27 3.91 24.27 3.97 24.27 4.17 24.46 4.28 24.83 4.33 25.81 4.44 26.47 4.55 26.82 4.66 27.17 4.77 27.46 4.98 27.71 5.28 27.96 5.58 28.08 5.94 28.08 6.37 28.08 7.02 27.81 7.54 27.26 7.92 26.72 8.3 25.96 8.49 25.01 8.49 23.4 8.49 22.4 7.89 22.02 6.68Z" class="MsftOfcThm_Background1_Stroke_v2 MsftOfcThm_Accent6_lumMod_50_Fill_v2" stroke="#FFFFFF" stroke-width="0.299222" fill="#385723"/><path d="M28.37 6.71 30.22 6.46C30.33 6.89 30.74 7.1 31.47 7.1 32.08 7.1 32.38 6.98 32.38 6.75 32.38 6.65 32.32 6.57 32.2 6.51 32.08 6.45 31.81 6.4 31.37 6.34 30.16 6.17 29.4 5.91 29.1 5.55 28.8 5.19 28.65 4.8 28.65 4.36 28.65 3.75 28.9 3.26 29.41 2.88 29.92 2.5 30.58 2.31 31.41 2.31 32.86 2.31 33.78 2.83 34.18 3.87L32.41 4.2C32.25 3.85 31.9 3.67 31.37 3.67 31.12 3.67 30.93 3.7 30.81 3.77 30.69 3.84 30.63 3.91 30.63 3.97 30.63 4.17 30.82 4.28 31.19 4.33 32.17 4.44 32.83 4.55 33.18 4.66 33.53 4.77 33.82 4.98 34.07 5.28 34.32 5.58 34.44 5.94 34.44 6.37 34.44 7.02 34.17 7.54 33.62 7.92 33.08 8.3 32.32 8.49 31.37 8.49 29.76 8.49 28.76 7.89 28.38 6.68Z" class="MsftOfcThm_Background1_Stroke_v2 MsftOfcThm_Accent6_lumMod_50_Fill_v2" stroke="#FFFFFF" stroke-width="0.299222" fill="#385723"/><path d="M41.94 2.44 41.94 3.96 40.75 3.96 40.75 6.16C40.75 6.46 40.81 6.64 40.92 6.7 41.03 6.76 41.15 6.78 41.27 6.78 41.46 6.78 41.68 6.75 41.94 6.68L41.94 8.34C41.48 8.43 41.03 8.47 40.58 8.47 39.86 8.47 39.33 8.32 39 8.01 38.67 7.7 38.49 7.21 38.49 6.53L38.49 5.83C38.49 5.83 38.49 3.95 38.49 3.95L37.6 3.95 37.6 2.43 38.49 2.43 38.53 0.49 40.75 0.45 40.75 2.42 41.94 2.42Z" class="MsftOfcThm_Background1_Stroke_v2 MsftOfcThm_Accent6_lumMod_50_Fill_v2" stroke="#FFFFFF" stroke-width="0.299222" fill="#385723"/><path d="M48.57 8.4 46.23 8.4 46.23 4.81C46.23 4.48 46.19 4.26 46.12 4.13 46.05 4 45.91 3.95 45.7 3.95 45.54 3.95 45.4 4 45.28 4.09 45.16 4.19 45.09 4.28 45.07 4.39 45.05 4.49 45.04 4.7 45.04 5.03L45.04 8.4 42.7 8.4 42.7 0.4 45.04 0.4 45.04 3.15C45.46 2.6 46.01 2.32 46.69 2.32 47.03 2.32 47.34 2.38 47.6 2.5 47.86 2.62 48.06 2.77 48.2 2.96 48.34 3.15 48.44 3.33 48.48 3.5 48.52 3.67 48.55 4.02 48.55 4.52L48.55 8.4Z" class="MsftOfcThm_Background1_Stroke_v2 MsftOfcThm_Accent6_lumMod_50_Fill_v2" stroke="#FFFFFF" stroke-width="0.299222" fill="#385723"/><path d="M53.74 6.26 55.92 6.41C55.79 7 55.46 7.49 54.93 7.91 54.4 8.33 53.68 8.53 52.78 8.53 51.78 8.53 50.98 8.24 50.38 7.66 49.78 7.08 49.48 6.36 49.48 5.5 49.48 4.64 49.77 3.86 50.36 3.24 50.95 2.62 51.74 2.32 52.72 2.32 53.7 2.32 54.44 2.61 55.03 3.19 55.62 3.77 55.91 4.56 55.91 5.55 55.91 5.63 55.91 5.75 55.91 5.89L51.92 5.89C51.92 6.27 51.99 6.54 52.12 6.72 52.25 6.9 52.48 6.99 52.83 6.99 53.34 6.99 53.64 6.75 53.73 6.26ZM53.58 4.71C53.58 4.31 53.5 4.04 53.34 3.9 53.18 3.76 52.99 3.69 52.75 3.69 52.2 3.69 51.92 4.03 51.92 4.71L53.58 4.71Z" class="MsftOfcThm_Background1_Stroke_v2 MsftOfcThm_Accent6_lumMod_50_Fill_v2" stroke="#FFFFFF" stroke-width="0.299222" fill="#385723"/><path d="M63.43 6 65.42 6.17C65.33 6.87 65.03 7.43 64.54 7.87 64.05 8.31 63.4 8.53 62.59 8.53 61.68 8.53 60.94 8.24 60.37 7.67 59.8 7.1 59.52 6.36 59.52 5.47 59.52 4.58 59.8 3.8 60.37 3.21 60.94 2.62 61.67 2.32 62.57 2.32 63.37 2.32 64.02 2.54 64.53 2.99 65.04 3.44 65.32 4 65.4 4.69L63.36 4.86C63.27 4.23 63.04 3.92 62.65 3.92 62.4 3.92 62.22 4.03 62.1 4.26 61.98 4.49 61.93 4.89 61.93 5.45 61.93 5.94 61.99 6.3 62.1 6.53 62.21 6.76 62.42 6.88 62.7 6.88 63.12 6.88 63.37 6.59 63.44 6Z" class="MsftOfcThm_Background1_Stroke_v2 MsftOfcThm_Accent6_lumMod_50_Fill_v2" stroke="#FFFFFF" stroke-width="0.299222" fill="#385723"/><path d="M69.03 8.53C68.04 8.53 67.26 8.22 66.67 7.61 66.08 7 65.8 6.27 65.8 5.44 65.8 4.55 66.1 3.81 66.71 3.21 67.32 2.61 68.11 2.32 69.08 2.32 70.05 2.32 70.85 2.61 71.44 3.2 72.03 3.79 72.33 4.52 72.33 5.4 72.33 6.28 72.03 7.03 71.42 7.63 70.81 8.23 70.01 8.52 69.01 8.52ZM69.07 7.11C69.43 7.11 69.65 6.92 69.74 6.54 69.83 6.16 69.86 5.77 69.86 5.36 69.86 4.8 69.8 4.4 69.69 4.15 69.58 3.9 69.37 3.78 69.08 3.78 68.81 3.78 68.61 3.91 68.49 4.16 68.37 4.41 68.3 4.83 68.3 5.41 68.3 6.09 68.36 6.55 68.49 6.77 68.62 6.99 68.81 7.1 69.07 7.1Z" class="MsftOfcThm_Background1_Stroke_v2 MsftOfcThm_Accent6_lumMod_50_Fill_v2" stroke="#FFFFFF" stroke-width="0.299222" fill="#385723"/><path d="M75.49 8.4 73.25 8.4 73.25 2.44 75.2 2.44 75.2 3.67C75.42 2.78 75.94 2.33 76.75 2.33 76.83 2.33 76.95 2.33 77.09 2.35L77.09 4.43C76.93 4.39 76.78 4.37 76.65 4.37 75.88 4.37 75.49 4.8 75.49 5.66L75.49 8.39Z" class="MsftOfcThm_Background1_Stroke_v2 MsftOfcThm_Accent6_lumMod_50_Fill_v2" stroke="#FFFFFF" stroke-width="0.299222" fill="#385723"/><path d="M80.06 8.4 77.82 8.4 77.82 2.44 79.77 2.44 79.77 3.67C79.99 2.78 80.51 2.33 81.32 2.33 81.4 2.33 81.52 2.33 81.66 2.35L81.66 4.43C81.5 4.39 81.35 4.37 81.22 4.37 80.45 4.37 80.06 4.8 80.06 5.66L80.06 8.39Z" class="MsftOfcThm_Background1_Stroke_v2 MsftOfcThm_Accent6_lumMod_50_Fill_v2" stroke="#FFFFFF" stroke-width="0.299222" fill="#385723"/><path d="M86.34 6.26 88.52 6.41C88.39 7 88.06 7.49 87.53 7.91 87 8.33 86.28 8.53 85.38 8.53 84.38 8.53 83.58 8.24 82.98 7.66 82.38 7.08 82.08 6.36 82.08 5.5 82.08 4.64 82.37 3.86 82.96 3.24 83.55 2.62 84.34 2.32 85.32 2.32 86.3 2.32 87.04 2.61 87.63 3.19 88.22 3.77 88.51 4.56 88.51 5.55 88.51 5.63 88.51 5.75 88.51 5.89L84.52 5.89C84.52 6.27 84.59 6.54 84.72 6.72 84.85 6.9 85.08 6.99 85.43 6.99 85.94 6.99 86.24 6.75 86.33 6.26ZM86.18 4.71C86.18 4.31 86.1 4.04 85.94 3.9 85.78 3.76 85.59 3.69 85.35 3.69 84.8 3.69 84.52 4.03 84.52 4.71L86.18 4.71Z" class="MsftOfcThm_Background1_Stroke_v2 MsftOfcThm_Accent6_lumMod_50_Fill_v2" stroke="#FFFFFF" stroke-width="0.299222" fill="#385723"/><path d="M93.03 6 95.02 6.17C94.93 6.87 94.63 7.43 94.14 7.87 93.65 8.31 93 8.53 92.19 8.53 91.28 8.53 90.54 8.24 89.97 7.67 89.4 7.1 89.12 6.36 89.12 5.47 89.12 4.58 89.4 3.8 89.97 3.21 90.54 2.62 91.27 2.32 92.17 2.32 92.97 2.32 93.62 2.54 94.13 2.99 94.64 3.44 94.92 4 95 4.69L92.96 4.86C92.87 4.23 92.64 3.92 92.25 3.92 92 3.92 91.82 4.03 91.7 4.26 91.58 4.49 91.53 4.89 91.53 5.45 91.53 5.94 91.59 6.3 91.7 6.53 91.81 6.76 92.02 6.88 92.3 6.88 92.72 6.88 92.97 6.59 93.04 6Z" class="MsftOfcThm_Background1_Stroke_v2 MsftOfcThm_Accent6_lumMod_50_Fill_v2" stroke="#FFFFFF" stroke-width="0.299222" fill="#385723"/><path d="M99.39 2.44 99.39 3.96 98.2 3.96 98.2 6.16C98.2 6.46 98.26 6.64 98.37 6.7 98.48 6.76 98.6 6.78 98.72 6.78 98.91 6.78 99.13 6.75 99.39 6.68L99.39 8.34C98.93 8.43 98.48 8.47 98.03 8.47 97.31 8.47 96.78 8.32 96.45 8.01 96.12 7.7 95.94 7.21 95.94 6.53L95.94 5.83C95.94 5.83 95.94 3.95 95.94 3.95L95.05 3.95 95.05 2.43 95.94 2.43 95.98 0.49 98.2 0.45 98.2 2.42 99.39 2.42Z" class="MsftOfcThm_Background1_Stroke_v2 MsftOfcThm_Accent6_lumMod_50_Fill_v2" stroke="#FFFFFF" stroke-width="0.299222" fill="#385723"/><path d="M109.03 8.4 106.69 8.4 106.69 4.81C106.69 4.48 106.65 4.26 106.58 4.13 106.51 4 106.37 3.95 106.16 3.95 106 3.95 105.86 4 105.74 4.09 105.62 4.19 105.55 4.28 105.53 4.39 105.51 4.49 105.5 4.7 105.5 5.03L105.5 8.4 103.16 8.4 103.16 0.4 105.5 0.4 105.5 3.15C105.92 2.6 106.47 2.32 107.15 2.32 107.49 2.32 107.8 2.38 108.06 2.5 108.32 2.62 108.52 2.77 108.66 2.96 108.8 3.15 108.9 3.33 108.94 3.5 108.98 3.67 109.01 4.02 109.01 4.52L109.01 8.4Z" class="MsftOfcThm_Background1_Stroke_v2 MsftOfcThm_Accent6_lumMod_50_Fill_v2" stroke="#FFFFFF" stroke-width="0.299222" fill="#385723"/><path d="M116.27 8.4 114.04 8.4C113.99 8.15 113.96 7.87 113.96 7.57 113.54 8.21 112.9 8.53 112.04 8.53 111.34 8.53 110.81 8.35 110.46 7.99 110.11 7.63 109.94 7.22 109.94 6.75 109.94 6.12 110.23 5.61 110.8 5.22 111.37 4.83 112.39 4.6 113.84 4.52L113.84 4.39C113.84 4.13 113.78 3.95 113.66 3.87 113.54 3.79 113.37 3.74 113.14 3.74 112.6 3.74 112.3 3.96 112.24 4.39L110.11 4.19C110.41 2.94 111.45 2.32 113.22 2.32 113.7 2.32 114.14 2.37 114.54 2.46 114.94 2.55 115.26 2.71 115.5 2.91 115.74 3.11 115.89 3.33 115.97 3.55 116.05 3.77 116.09 4.21 116.09 4.86L116.09 7.24C116.09 7.69 116.15 8.08 116.27 8.4ZM113.84 5.61C112.84 5.72 112.35 6.03 112.35 6.57 112.35 6.93 112.55 7.11 112.94 7.11 113.19 7.11 113.4 7.04 113.58 6.89 113.76 6.74 113.84 6.41 113.84 5.91L113.84 5.62Z" class="MsftOfcThm_Background1_Stroke_v2 MsftOfcThm_Accent6_lumMod_50_Fill_v2" stroke="#FFFFFF" stroke-width="0.299222" fill="#385723"/><path d="M119.6 0.4 119.6 8.4 117.3 8.4 117.3 0.4 119.6 0.4Z" class="MsftOfcThm_Background1_Stroke_v2 MsftOfcThm_Accent6_lumMod_50_Fill_v2" stroke="#FFFFFF" stroke-width="0.299222" fill="#385723"/><path d="M123.35 3.96 123.35 8.4 121.15 8.4 121.15 3.96 120.26 3.96 120.26 2.44 121.15 2.44C121.15 1.95 121.17 1.58 121.21 1.35 121.25 1.12 121.36 0.89 121.53 0.67 121.7 0.45 121.93 0.29 122.22 0.17 122.51 0.05 122.9 -1.94289e-16 123.39 -1.94289e-16 123.91 -1.94289e-16 124.42 0.04 124.9 0.12L124.9 1.65C124.53 1.6 124.25 1.57 124.07 1.57 123.89 1.57 123.72 1.61 123.57 1.68 123.42 1.75 123.34 1.94 123.34 2.22L123.34 2.43 124.86 2.43 124.86 3.95 123.35 3.95Z" class="MsftOfcThm_Background1_Stroke_v2 MsftOfcThm_Accent6_lumMod_50_Fill_v2" stroke="#FFFFFF" stroke-width="0.299222" fill="#385723"/><path d="M5.31 22.93C4.32 22.93 3.54 22.62 2.95 22.01 2.36 21.4 2.08 20.67 2.08 19.84 2.08 18.95 2.38 18.21 2.99 17.61 3.6 17.01 4.39 16.72 5.36 16.72 6.33 16.72 7.13 17.01 7.72 17.6 8.31 18.19 8.61 18.92 8.61 19.8 8.61 20.68 8.31 21.43 7.7 22.03 7.09 22.63 6.29 22.92 5.29 22.92ZM5.35 21.51C5.71 21.51 5.93 21.32 6.02 20.94 6.11 20.56 6.14 20.17 6.14 19.76 6.14 19.2 6.08 18.8 5.97 18.55 5.86 18.3 5.65 18.18 5.36 18.18 5.09 18.18 4.89 18.31 4.77 18.56 4.65 18.81 4.58 19.23 4.58 19.81 4.58 20.49 4.64 20.95 4.77 21.17 4.9 21.39 5.09 21.5 5.35 21.5Z" class="MsftOfcThm_Background1_Stroke_v2 MsftOfcThm_Accent6_lumMod_50_Fill_v2" stroke="#FFFFFF" stroke-width="0.299222" fill="#385723"/><path d="M12.04 18.36 12.04 22.8 9.84 22.8 9.84 18.36 8.95 18.36 8.95 16.84 9.84 16.84C9.84 16.35 9.86 15.98 9.9 15.75 9.94 15.52 10.05 15.29 10.22 15.07 10.39 14.85 10.62 14.69 10.91 14.57 11.2 14.45 11.59 14.4 12.08 14.4 12.6 14.4 13.11 14.44 13.59 14.52L13.59 16.05C13.22 16 12.94 15.97 12.76 15.97 12.58 15.97 12.41 16.01 12.26 16.08 12.11 16.15 12.03 16.34 12.03 16.62L12.03 16.83 13.55 16.83 13.55 18.35 12.04 18.35Z" class="MsftOfcThm_Background1_Stroke_v2 MsftOfcThm_Accent6_lumMod_50_Fill_v2" stroke="#FFFFFF" stroke-width="0.299222" fill="#385723"/><path d="M20.91 16.84 20.91 18.36 19.72 18.36 19.72 20.56C19.72 20.86 19.78 21.04 19.89 21.1 20 21.16 20.12 21.18 20.24 21.18 20.43 21.18 20.65 21.15 20.91 21.08L20.91 22.74C20.45 22.83 20 22.87 19.55 22.87 18.83 22.87 18.3 22.72 17.97 22.41 17.64 22.1 17.46 21.61 17.46 20.93L17.46 20.23C17.46 20.23 17.46 18.35 17.46 18.35L16.57 18.35 16.57 16.83 17.46 16.83 17.5 14.89 19.72 14.85 19.72 16.82 20.91 16.82Z" class="MsftOfcThm_Background1_Stroke_v2 MsftOfcThm_Accent6_lumMod_50_Fill_v2" stroke="#FFFFFF" stroke-width="0.299222" fill="#385723"/><path d="M27.54 22.8 25.2 22.8 25.2 19.21C25.2 18.88 25.16 18.66 25.09 18.53 25.02 18.4 24.88 18.35 24.67 18.35 24.51 18.35 24.37 18.4 24.25 18.49 24.13 18.59 24.06 18.68 24.04 18.79 24.02 18.89 24.01 19.1 24.01 19.43L24.01 22.8 21.67 22.8 21.67 14.8 24.01 14.8 24.01 17.54C24.43 16.99 24.98 16.71 25.66 16.71 26 16.71 26.31 16.77 26.57 16.89 26.83 17.01 27.03 17.16 27.17 17.35 27.31 17.54 27.41 17.72 27.45 17.89 27.49 18.06 27.52 18.41 27.52 18.91L27.52 22.79Z" class="MsftOfcThm_Background1_Stroke_v2 MsftOfcThm_Accent6_lumMod_50_Fill_v2" stroke="#FFFFFF" stroke-width="0.299222" fill="#385723"/><path d="M32.72 20.66 34.9 20.81C34.77 21.4 34.44 21.89 33.91 22.31 33.38 22.73 32.66 22.93 31.76 22.93 30.76 22.93 29.96 22.64 29.36 22.06 28.76 21.48 28.46 20.76 28.46 19.9 28.46 19.04 28.75 18.26 29.34 17.64 29.93 17.02 30.72 16.72 31.7 16.72 32.68 16.72 33.42 17.01 34.01 17.59 34.6 18.17 34.89 18.96 34.89 19.95 34.89 20.03 34.89 20.15 34.89 20.29L30.9 20.29C30.9 20.67 30.97 20.94 31.1 21.12 31.23 21.3 31.46 21.39 31.81 21.39 32.32 21.39 32.62 21.15 32.71 20.66ZM32.56 19.11C32.56 18.71 32.48 18.44 32.32 18.3 32.16 18.16 31.97 18.09 31.73 18.09 31.18 18.09 30.9 18.43 30.9 19.11L32.56 19.11Z" class="MsftOfcThm_Background1_Stroke_v2 MsftOfcThm_Accent6_lumMod_50_Fill_v2" stroke="#FFFFFF" stroke-width="0.299222" fill="#385723"/><path d="M41.15 24.68 38.81 24.68 38.81 16.84 40.96 16.84 40.96 17.68C41.26 17.04 41.82 16.71 42.64 16.71 43.35 16.71 43.91 16.99 44.31 17.54 44.71 18.09 44.91 18.85 44.91 19.8 44.91 20.75 44.7 21.51 44.29 22.07 43.88 22.63 43.33 22.91 42.66 22.91 41.99 22.91 41.49 22.66 41.14 22.15L41.14 24.67ZM41.15 20.62C41.15 20.89 41.21 21.09 41.33 21.24 41.45 21.39 41.6 21.46 41.78 21.46 42.06 21.46 42.25 21.33 42.36 21.07 42.47 20.81 42.52 20.41 42.52 19.87 42.52 19.25 42.46 18.81 42.34 18.56 42.22 18.31 42.04 18.18 41.8 18.18 41.66 18.18 41.51 18.24 41.37 18.35 41.23 18.46 41.16 18.65 41.16 18.91L41.16 20.62Z" class="MsftOfcThm_Background1_Stroke_v2 MsftOfcThm_Accent6_lumMod_50_Fill_v2" stroke="#FFFFFF" stroke-width="0.299222" fill="#385723"/><path d="M48.16 14.8 48.16 22.8 45.86 22.8 45.86 14.8 48.16 14.8Z" class="MsftOfcThm_Background1_Stroke_v2 MsftOfcThm_Accent6_lumMod_50_Fill_v2" stroke="#FFFFFF" stroke-width="0.299222" fill="#385723"/><path d="M55.39 22.8 53.16 22.8C53.11 22.55 53.08 22.27 53.08 21.97 52.66 22.61 52.02 22.93 51.16 22.93 50.46 22.93 49.93 22.75 49.58 22.39 49.23 22.03 49.06 21.62 49.06 21.15 49.06 20.52 49.35 20.01 49.92 19.62 50.49 19.23 51.51 19 52.96 18.92L52.96 18.79C52.96 18.53 52.9 18.35 52.78 18.27 52.66 18.19 52.49 18.14 52.26 18.14 51.72 18.14 51.42 18.36 51.36 18.79L49.23 18.59C49.53 17.34 50.57 16.72 52.34 16.72 52.82 16.72 53.26 16.77 53.66 16.86 54.06 16.95 54.38 17.11 54.62 17.31 54.86 17.51 55.01 17.73 55.09 17.95 55.17 18.17 55.21 18.61 55.21 19.26L55.21 21.64C55.21 22.09 55.27 22.48 55.39 22.8ZM52.96 20.01C51.96 20.12 51.47 20.43 51.47 20.97 51.47 21.33 51.67 21.51 52.06 21.51 52.31 21.51 52.52 21.44 52.7 21.29 52.88 21.14 52.96 20.81 52.96 20.31L52.96 20.02Z" class="MsftOfcThm_Background1_Stroke_v2 MsftOfcThm_Accent6_lumMod_50_Fill_v2" stroke="#FFFFFF" stroke-width="0.299222" fill="#385723"/><path d="M60.1 16.84 60.1 18.36 58.91 18.36 58.91 20.56C58.91 20.86 58.97 21.04 59.08 21.1 59.19 21.16 59.31 21.18 59.43 21.18 59.62 21.18 59.84 21.15 60.1 21.08L60.1 22.74C59.64 22.83 59.19 22.87 58.74 22.87 58.02 22.87 57.49 22.72 57.16 22.41 56.83 22.1 56.65 21.61 56.65 20.93L56.65 20.23C56.65 20.23 56.65 18.35 56.65 18.35L55.76 18.35 55.76 16.83 56.65 16.83 56.69 14.89 58.91 14.85 58.91 16.82 60.1 16.82Z" class="MsftOfcThm_Background1_Stroke_v2 MsftOfcThm_Accent6_lumMod_50_Fill_v2" stroke="#FFFFFF" stroke-width="0.299222" fill="#385723"/><path d="M64.82 20.66 67 20.81C66.87 21.4 66.54 21.89 66.01 22.31 65.48 22.73 64.76 22.93 63.86 22.93 62.86 22.93 62.06 22.64 61.46 22.06 60.86 21.48 60.56 20.76 60.56 19.9 60.56 19.04 60.85 18.26 61.44 17.64 62.03 17.02 62.82 16.72 63.8 16.72 64.78 16.72 65.52 17.01 66.11 17.59 66.7 18.17 66.99 18.96 66.99 19.95 66.99 20.03 66.99 20.15 66.99 20.29L63 20.29C63 20.67 63.07 20.94 63.2 21.12 63.33 21.3 63.56 21.39 63.91 21.39 64.42 21.39 64.72 21.15 64.81 20.66ZM64.66 19.11C64.66 18.71 64.58 18.44 64.42 18.3 64.26 18.16 64.07 18.09 63.83 18.09 63.28 18.09 63 18.43 63 19.11L64.66 19.11Z" class="MsftOfcThm_Background1_Stroke_v2 MsftOfcThm_Accent6_lumMod_50_Fill_v2" stroke="#FFFFFF" stroke-width="0.299222" fill="#385723"/><path d="M76.92 22.8 74.69 22.8C74.64 22.55 74.61 22.27 74.61 21.97 74.19 22.61 73.55 22.93 72.69 22.93 71.99 22.93 71.46 22.75 71.11 22.39 70.76 22.03 70.59 21.62 70.59 21.15 70.59 20.52 70.88 20.01 71.45 19.62 72.02 19.23 73.04 19 74.49 18.92L74.49 18.79C74.49 18.53 74.43 18.35 74.31 18.27 74.19 18.19 74.02 18.14 73.79 18.14 73.25 18.14 72.95 18.36 72.89 18.79L70.76 18.59C71.06 17.34 72.1 16.72 73.87 16.72 74.35 16.72 74.79 16.77 75.19 16.86 75.59 16.95 75.91 17.11 76.15 17.31 76.39 17.51 76.54 17.73 76.62 17.95 76.7 18.17 76.74 18.61 76.74 19.26L76.74 21.64C76.74 22.09 76.8 22.48 76.92 22.8ZM74.49 20.01C73.49 20.12 73 20.43 73 20.97 73 21.33 73.2 21.51 73.59 21.51 73.84 21.51 74.05 21.44 74.23 21.29 74.41 21.14 74.49 20.81 74.49 20.31L74.49 20.02Z" class="MsftOfcThm_Background1_Stroke_v2 MsftOfcThm_Accent6_lumMod_50_Fill_v2" stroke="#FFFFFF" stroke-width="0.299222" fill="#385723"/><path d="M83.77 22.8 81.43 22.8 81.43 19.05C81.43 18.74 81.38 18.54 81.29 18.46 81.2 18.38 81.07 18.33 80.93 18.33 80.5 18.33 80.29 18.63 80.29 19.22L80.29 22.8 77.95 22.8 77.95 16.84 80.12 16.84 80.12 17.68C80.44 17.04 81.01 16.71 81.84 16.71 82.27 16.71 82.64 16.79 82.94 16.96 83.24 17.13 83.45 17.34 83.58 17.6 83.71 17.86 83.77 18.32 83.77 18.97L83.77 22.78Z" class="MsftOfcThm_Background1_Stroke_v2 MsftOfcThm_Accent6_lumMod_50_Fill_v2" stroke="#FFFFFF" stroke-width="0.299222" fill="#385723"/><path d="M90.82 22.8 88.63 22.8 88.63 22.01C88.31 22.62 87.77 22.92 87.02 22.92 86.33 22.92 85.77 22.65 85.35 22.11 84.93 21.57 84.71 20.79 84.71 19.77 84.71 18.81 84.92 18.05 85.35 17.49 85.78 16.93 86.35 16.65 87.06 16.65 87.65 16.65 88.14 16.87 88.52 17.32L88.52 14.79 90.82 14.79 90.82 22.79ZM88.52 18.97C88.52 18.43 88.3 18.17 87.86 18.17 87.55 18.17 87.35 18.34 87.25 18.68 87.15 19.02 87.11 19.44 87.11 19.93 87.11 20.89 87.36 21.38 87.85 21.38 88.04 21.38 88.2 21.3 88.33 21.15 88.46 21 88.53 20.77 88.53 20.45L88.53 18.97Z" class="MsftOfcThm_Background1_Stroke_v2 MsftOfcThm_Accent6_lumMod_50_Fill_v2" stroke="#FFFFFF" stroke-width="0.299222" fill="#385723"/><path d="M101.26 15.49 101.2 17.09 101.09 17.09C100.88 17.07 100.73 17.07 100.64 17.07 100.28 17.07 100.06 17.14 99.98 17.29 100.43 17.66 100.65 18.1 100.65 18.62 100.65 19.23 100.41 19.69 99.93 19.99 99.45 20.29 98.79 20.45 97.96 20.45 97.94 20.45 97.84 20.45 97.66 20.44 97.49 20.44 97.4 20.43 97.39 20.43 97.01 20.43 96.82 20.53 96.82 20.72 96.82 20.89 96.99 20.98 97.32 21L99.24 21.08C99.94 21.11 100.45 21.31 100.78 21.67 101.11 22.03 101.27 22.45 101.27 22.93 101.27 23.5 101.03 23.97 100.54 24.33 100.05 24.69 99.11 24.87 97.7 24.87 95.53 24.87 94.45 24.37 94.45 23.38 94.45 22.84 94.74 22.46 95.31 22.24 94.94 21.98 94.75 21.67 94.75 21.31 94.75 20.72 95.13 20.28 95.89 19.99 95.25 19.71 94.93 19.25 94.93 18.61 94.93 18.02 95.19 17.56 95.7 17.23 96.21 16.9 96.92 16.74 97.82 16.74 98.23 16.74 98.6 16.78 98.94 16.86 99.08 15.93 99.57 15.46 100.42 15.46 100.62 15.46 100.89 15.48 101.25 15.51ZM97.24 22.73C97.15 22.73 97.07 22.73 96.98 22.73 96.58 22.73 96.38 22.85 96.38 23.11 96.38 23.34 96.53 23.49 96.84 23.56 97.15 23.63 97.56 23.66 98.07 23.66 98.55 23.66 98.87 23.62 99 23.54 99.13 23.46 99.21 23.34 99.21 23.2 99.21 23.1 99.18 23.01 99.12 22.95 99.06 22.89 98.91 22.84 98.67 22.83L97.24 22.75ZM97.84 19.34C98.29 19.34 98.52 19.1 98.52 18.62 98.52 18.14 98.29 17.88 97.82 17.88 97.35 17.88 97.13 18.13 97.13 18.63 97.13 19.1 97.37 19.34 97.84 19.34Z" class="MsftOfcThm_Background1_Stroke_v2 MsftOfcThm_Accent6_lumMod_50_Fill_v2" stroke="#FFFFFF" stroke-width="0.299222" fill="#385723"/><path d="M105.82 20.66 108 20.81C107.87 21.4 107.54 21.89 107.01 22.31 106.48 22.73 105.76 22.93 104.86 22.93 103.86 22.93 103.06 22.64 102.46 22.06 101.86 21.48 101.56 20.76 101.56 19.9 101.56 19.04 101.85 18.26 102.44 17.64 103.03 17.02 103.82 16.72 104.8 16.72 105.78 16.72 106.52 17.01 107.11 17.59 107.7 18.17 107.99 18.96 107.99 19.95 107.99 20.03 107.99 20.15 107.99 20.29L104 20.29C104 20.67 104.07 20.94 104.2 21.12 104.33 21.3 104.56 21.39 104.91 21.39 105.42 21.39 105.72 21.15 105.81 20.66ZM105.66 19.11C105.66 18.71 105.58 18.44 105.42 18.3 105.26 18.16 105.07 18.09 104.83 18.09 104.28 18.09 104 18.43 104 19.11L105.66 19.11Z" class="MsftOfcThm_Background1_Stroke_v2 MsftOfcThm_Accent6_lumMod_50_Fill_v2" stroke="#FFFFFF" stroke-width="0.299222" fill="#385723"/><path d="M112.6 16.84 112.6 18.36 111.41 18.36 111.41 20.56C111.41 20.86 111.47 21.04 111.58 21.1 111.69 21.16 111.81 21.18 111.93 21.18 112.12 21.18 112.34 21.15 112.6 21.08L112.6 22.74C112.14 22.83 111.69 22.87 111.24 22.87 110.52 22.87 109.99 22.72 109.66 22.41 109.33 22.1 109.15 21.61 109.15 20.93L109.15 20.23C109.15 20.23 109.15 18.35 109.15 18.35L108.26 18.35 108.26 16.83 109.15 16.83 109.19 14.89 111.41 14.85 111.41 16.82 112.6 16.82Z" class="MsftOfcThm_Background1_Stroke_v2 MsftOfcThm_Accent6_lumMod_50_Fill_v2" stroke="#FFFFFF" stroke-width="0.299222" fill="#385723"/><path d="M122.39 22.8 120.16 22.8C120.11 22.55 120.08 22.27 120.08 21.97 119.66 22.61 119.02 22.93 118.16 22.93 117.46 22.93 116.93 22.75 116.58 22.39 116.23 22.03 116.06 21.62 116.06 21.15 116.06 20.52 116.35 20.01 116.92 19.62 117.49 19.23 118.51 19 119.96 18.92L119.96 18.79C119.96 18.53 119.9 18.35 119.78 18.27 119.66 18.19 119.49 18.14 119.26 18.14 118.72 18.14 118.42 18.36 118.36 18.79L116.23 18.59C116.53 17.34 117.57 16.72 119.34 16.72 119.82 16.72 120.26 16.77 120.66 16.86 121.06 16.95 121.38 17.11 121.62 17.31 121.86 17.51 122.01 17.73 122.09 17.95 122.17 18.17 122.21 18.61 122.21 19.26L122.21 21.64C122.21 22.09 122.27 22.48 122.39 22.8ZM119.96 20.01C118.96 20.12 118.47 20.43 118.47 20.97 118.47 21.33 118.67 21.51 119.06 21.51 119.31 21.51 119.52 21.44 119.7 21.29 119.88 21.14 119.96 20.81 119.96 20.31L119.96 20.02Z" class="MsftOfcThm_Background1_Stroke_v2 MsftOfcThm_Accent6_lumMod_50_Fill_v2" stroke="#FFFFFF" stroke-width="0.299222" fill="#385723"/><path d="M51.31 39.08 48.97 39.08 48.97 31.24 51.12 31.24 51.12 32.08C51.42 31.44 51.98 31.11 52.8 31.11 53.51 31.11 54.07 31.39 54.47 31.94 54.87 32.49 55.07 33.25 55.07 34.2 55.07 35.15 54.86 35.91 54.45 36.47 54.04 37.03 53.49 37.31 52.82 37.31 52.15 37.31 51.65 37.06 51.3 36.55L51.3 39.07ZM51.31 35.02C51.31 35.29 51.37 35.49 51.49 35.64 51.61 35.79 51.76 35.86 51.94 35.86 52.22 35.86 52.41 35.73 52.52 35.47 52.63 35.21 52.68 34.81 52.68 34.27 52.68 33.65 52.62 33.21 52.5 32.96 52.38 32.71 52.2 32.58 51.96 32.58 51.82 32.58 51.67 32.64 51.53 32.75 51.39 32.86 51.32 33.05 51.32 33.31L51.32 35.02Z" class="MsftOfcThm_Background1_Stroke_v2 MsftOfcThm_Accent6_lumMod_50_Fill_v2" stroke="#FFFFFF" stroke-width="0.299222" fill="#385723"/><path d="M58.25 37.2 56.01 37.2 56.01 31.24 57.96 31.24 57.96 32.47C58.18 31.58 58.7 31.13 59.51 31.13 59.59 31.13 59.71 31.13 59.85 31.15L59.85 33.23C59.69 33.19 59.54 33.17 59.41 33.17 58.64 33.17 58.25 33.6 58.25 34.46L58.25 37.19Z" class="MsftOfcThm_Background1_Stroke_v2 MsftOfcThm_Accent6_lumMod_50_Fill_v2" stroke="#FFFFFF" stroke-width="0.299222" fill="#385723"/><path d="M62.92 28.95 62.92 30.8 60.58 30.8 60.58 28.95 62.92 28.95ZM62.92 31.24 62.92 37.2 60.58 37.2 60.58 31.24 62.92 31.24Z" class="MsftOfcThm_Background1_Stroke_v2 MsftOfcThm_Accent6_lumMod_50_Fill_v2" stroke="#FFFFFF" stroke-width="0.299222" fill="#385723"/><path d="M68.99 35.72 68.99 37.2 63.73 37.2 63.73 35.91 66.24 32.68C65.94 32.69 65.74 32.7 65.63 32.7L63.93 32.7 63.93 31.25 68.89 31.25 68.89 32.5 66.33 35.73 66.64 35.73C66.7 35.73 66.76 35.72 66.81 35.72L68.98 35.72Z" class="MsftOfcThm_Background1_Stroke_v2 MsftOfcThm_Accent6_lumMod_50_Fill_v2" stroke="#FFFFFF" stroke-width="0.299222" fill="#385723"/><path d="M73.74 35.06 75.92 35.21C75.79 35.8 75.46 36.29 74.93 36.71 74.4 37.13 73.68 37.33 72.78 37.33 71.78 37.33 70.98 37.04 70.38 36.46 69.78 35.88 69.48 35.16 69.48 34.3 69.48 33.44 69.77 32.66 70.36 32.04 70.95 31.42 71.74 31.12 72.72 31.12 73.7 31.12 74.44 31.41 75.03 31.99 75.62 32.57 75.91 33.36 75.91 34.35 75.91 34.43 75.91 34.55 75.91 34.69L71.92 34.69C71.92 35.07 71.99 35.34 72.12 35.52 72.25 35.7 72.48 35.79 72.83 35.79 73.34 35.79 73.64 35.55 73.73 35.06ZM73.58 33.51C73.58 33.11 73.5 32.84 73.34 32.7 73.18 32.56 72.99 32.49 72.75 32.49 72.2 32.49 71.92 32.83 71.92 33.51L73.58 33.51Z" class="MsftOfcThm_Background1_Stroke_v2 MsftOfcThm_Accent6_lumMod_50_Fill_v2" stroke="#FFFFFF" stroke-width="0.299222" fill="#385723"/></svg>