<svg viewBox="0 0 526.06 446.53" xmlns="http://www.w3.org/2000/svg" xmlns:xlink="http://www.w3.org/1999/xlink" id="Layer_1" overflow="hidden"><defs><linearGradient x1="263.03" y1="255.28" x2="263.03" y2="446.53" gradientUnits="userSpaceOnUse" id="linear-gradient"><stop offset="0" stop-color="#72327E"/><stop offset="0.51" stop-color="#ED693C"/><stop offset="1" stop-color="#FCEF42"/></linearGradient><linearGradient x1="215.53" y1="85.02" x2="417.39" y2="85.02" xlink:href="#linear-gradient" id="linear-gradient-2"></linearGradient><linearGradient x1="215.23" y1="104.66" x2="307.49" y2="104.66" gradientUnits="userSpaceOnUse" id="linear-gradient-3"><stop offset="0" stop-color="#72327E"/><stop offset="0.73" stop-color="#EB2127"/></linearGradient><linearGradient x1="269.85" y1="105.49" x2="408.58" y2="105.49" gradientUnits="userSpaceOnUse" id="linear-gradient-4"><stop offset="0" stop-color="#F68D39" stop-opacity="0"/><stop offset="0.48" stop-color="#ED693C"/><stop offset="1" stop-color="#72327E"/></linearGradient><linearGradient x1="241.76" y1="85.44" x2="306.92" y2="85.44" gradientUnits="userSpaceOnUse" id="linear-gradient-5"><stop offset="0" stop-color="#65308F" stop-opacity="0"/><stop offset="0.19" stop-color="#4E256E" stop-opacity="0.32"/><stop offset="0.33" stop-color="#411F5B" stop-opacity="0.5"/><stop offset="0.47" stop-color="#391850" stop-opacity="0.6"/><stop offset="1" stop-color="#2B0B3B" stop-opacity="0.8"/></linearGradient><linearGradient x1="263.03" y1="144.89" x2="316.46" y2="144.89" gradientUnits="userSpaceOnUse" id="linear-gradient-6"><stop offset="0" stop-color="#FCEF42"/><stop offset="0.49" stop-color="#ED693C"/><stop offset="1" stop-color="#72327E"/></linearGradient><linearGradient x1="186.49" y1="124.47" x2="276.17" y2="214.15" gradientUnits="userSpaceOnUse" id="linear-gradient-7"><stop offset="0" stop-color="#F68D39"/><stop offset="0.64" stop-color="#ED693C"/><stop offset="1" stop-color="#72327E"/></linearGradient><linearGradient x1="1898.06" y1="199.89" x2="1984.37" y2="199.89" xlink:href="#linear-gradient-6" id="linear-gradient-8" gradientTransform="matrix(-1 -1.22465e-16 -1.22465e-16 1 2158.55 0)"></linearGradient><linearGradient x1="204.04" y1="201.03" x2="251.49" y2="118.84" xlink:href="#linear-gradient" id="linear-gradient-9"></linearGradient><linearGradient x1="1883.19" y1="197.98" x2="1941.41" y2="197.98" gradientUnits="userSpaceOnUse" id="linear-gradient-10" gradientTransform="matrix(-1 -1.22465e-16 -1.22465e-16 1 2158.55 0)"><stop offset="0.02" stop-color="#FFFFFF" stop-opacity="0"/><stop offset="0.13" stop-color="#CFBDCC" stop-opacity="0.22"/><stop offset="0.3" stop-color="#997191" stop-opacity="0.48"/><stop offset="0.48" stop-color="#723B67" stop-opacity="0.66"/><stop offset="0.69" stop-color="#5B1B4E" stop-opacity="0.77"/><stop offset="1" stop-color="#541247" stop-opacity="0.8"/></linearGradient><linearGradient x1="1938.05" y1="160.73" x2="2012.6" y2="160.73" gradientUnits="userSpaceOnUse" id="linear-gradient-11" gradientTransform="matrix(-1 -1.22465e-16 -1.22465e-16 1 2158.55 0)"><stop offset="0" stop-color="#FCEF42" stop-opacity="0"/><stop offset="0.49" stop-color="#ED693C" stop-opacity="0.4"/><stop offset="1" stop-color="#72327E"/></linearGradient><linearGradient x1="143.15" y1="104.73" x2="254.45" y2="104.73" gradientUnits="userSpaceOnUse" id="linear-gradient-12"><stop offset="0" stop-color="#FCEF42"/><stop offset="0.04" stop-color="#FCE435"/><stop offset="0.12" stop-color="#FCD423"/><stop offset="0.2" stop-color="#FCCA17"/><stop offset="0.28" stop-color="#FDC714"/><stop offset="0.48" stop-color="#996179"/><stop offset="0.73" stop-color="#ED693C"/><stop offset="0.9" stop-color="#E74039"/></linearGradient></defs><path d="M489.94 286.06C477.97 286.06 469.87 289.69 464.96 293.04 461.43 290.22 456.81 288.65 451.91 288.65 450.65 288.65 449.37 288.76 448.12 288.97L447.85 289.02C446.07 289.38 444.48 289.61 442.99 289.72L442.73 289.74 442.47 289.77C437.94 290.35 434.39 292.3 431.76 294.93 431.63 294.78 431.52 294.62 431.38 294.48 431.26 294.35 431.14 294.23 431.02 294.11 437.78 289.36 441.81 281.56 441.81 274.09 441.81 263.18 432.73 255.27 420.22 255.27 411.24 255.27 404.2 259.33 399.81 264.98 396.21 261.8 391.05 260.02 385.23 260.02 383.61 260.02 381.99 260.16 380.4 260.45L380.12 260.5 379.8 260.58C379.63 260.62 379.44 260.65 379.24 260.69 378.75 260.78 378.22 260.88 377.66 261.02 367.3 262.79 359.86 271.36 360.24 281.23L360.24 281.51C360.24 281.51 360.28 281.79 360.28 281.79 360.39 282.9 360.29 284.47 360.05 286.43 359.59 286.42 359.13 286.41 358.65 286.41 339.85 286.41 321.38 295.21 309.25 309.94L309.12 310.1C308.91 310.36 308.72 310.63 308.52 310.89 307.13 293.41 292.01 285.54 277.01 285.54 262.01 285.54 252.35 294.17 250.2 296.28 244.62 289.37 236.51 285.54 226.68 285.54 217.78 285.54 210.37 288.68 205.3 292.01 201.87 289.9 197.58 288.69 193.17 288.69 192.22 288.69 191.28 288.75 190.36 288.86 189.25 288.92 188.05 289.1 186.97 289.36 186.09 289.38 185 289.47 183.81 289.76 179.75 290.55 176.33 292.33 173.72 294.84 170.21 290.64 165 288.23 159.41 288.23 157.53 288.23 155.65 288.51 153.82 289.05 149.03 287.44 143.21 286.06 135.34 286.06 121.8 286.06 109.26 290.1 99.07 297.75L98.85 297.92C94.15 301.66 90.08 305.75 86.55 310.02 86.94 307.87 87.34 305.74 87.73 303.68 90.07 291.58 91.51 286.02 92.3 283.49L92.38 283.2C93.75 278.32 92.69 273.1 89.49 268.88 85.91 264.15 80.01 261.33 73.73 261.33 73.58 261.33 73.44 261.33 73.29 261.33L70.23 261.33C70.05 261.33 69.88 261.33 69.7 261.33 58.23 261.33 48.78 269.06 47.72 279.23 47.3 283.04 46.43 288.32 45.06 295.45L37.81 334.3C35.77 344.83 33.52 355.7 30.55 362.82 28.92 366.74 27.47 368.47 26.73 368.95 25.54 368.84 24.34 368.78 23.15 368.78 12.64 368.78 4.5 373.11 1.32 380.37-0.64 384.64-0.45 389.57 1.84 393.94 4.63 399.26 10.23 403.19 16.46 404.2L16.64 404.23C18.08 404.44 20.63 404.67 23.07 404.67 39.97 404.67 52.97 400.34 61.71 391.79L61.86 391.64C64.63 388.82 66.86 385.87 68.72 382.75 75.2 396.96 89.49 404.32 103.67 404.32 112.85 404.32 120.33 400.99 126.64 396.09 130.48 400.06 136.38 402.42 142.51 402.42 142.74 402.42 142.98 402.42 143.22 402.41 150.25 402.2 156.26 399.57 160.09 395.52 163.76 399.43 169.15 401.73 174.77 401.73 174.92 401.73 175.07 401.73 175.22 401.73L176.48 401.73C188.69 401.73 198.8 393.69 199.59 383.39 200.58 372.95 204.76 346.67 208.21 335.94 210.27 330.69 212.69 326.9 214.91 324.36 214.63 327.51 213.92 333.3 212.13 343.4 211.73 345.49 211.34 347.83 210.96 350.09 210.66 351.89 210.35 353.68 210.05 355.38L210.02 355.52C207.9 367.42 206.5 375.28 205.1 380.11L205.02 380.38 204.96 380.65C203.9 385.25 205.06 390.1 208.14 393.97 212 398.82 218.4 401.72 225.26 401.72 237.6 401.72 247.68 393.98 248.7 383.72L248.7 383.62C249.59 373.76 253.11 349.97 257.02 337.24 259.35 331.25 261.96 327.3 264.3 324.75 264.02 327.27 263.5 330.93 262.63 335.83 261.75 340.74 260.87 345.85 260.02 350.99 259.56 353.76 259.03 356.61 258.52 359.37 258.09 361.67 257.67 363.95 257.28 366.2 256.29 371.12 255.05 377.11 254.12 380.07L254.01 380.41 253.93 380.75C252.78 385.55 253.93 390.61 257.11 394.64 260.75 399.26 266.48 401.91 272.82 401.91 272.97 401.91 273.13 401.91 273.28 401.91L274.55 401.91C284.42 401.91 292.9 396.59 296.29 389.07 303.14 398.6 314.35 404.34 328 404.34 337.24 404.34 344.55 400.98 350.18 396.76 354.3 400.35 360.05 402.44 366.05 402.44L366.31 402.44C373.24 402.25 379.23 399.22 382.98 394.57 383.2 394.84 383.4 395.12 383.63 395.38 387.32 399.54 392.6 401.92 398.11 401.92 398.25 401.92 398.39 401.92 398.53 401.92L399.78 401.92C403.63 401.92 407.24 401.19 410.41 399.88L410.2 400.96C409.88 402.08 409.75 402.93 409.7 403.53L408.66 408.89 408.42 410.03C407.23 415.72 405.99 421.6 404.82 426L404.75 426.27 404.69 426.54C404.4 427.92 404.32 429.31 404.44 430.68L404.34 431.18 404.47 431.05C404.78 433.86 405.94 436.57 407.88 438.96 411.68 443.64 418.19 446.54 424.85 446.54L425.85 446.54C426.2 446.55 426.54 446.56 426.89 446.56 438.65 446.56 447.92 438.78 448.98 428.06L449.01 427.75C449.34 424.8 449.83 420.34 450.75 415.24 451.44 411.78 452.14 408.32 452.81 404.78 452.87 404.49 452.93 404.21 452.98 403.93 454.68 403.99 456.2 403.99 457.53 403.99 474.03 403.99 489.57 397.54 501.22 385.89 515.8 371.49 525.99 346.37 525.99 324.81 525.99 301.29 511.81 286.1 489.87 286.1ZM459.67 371.85C459.43 371.85 459.19 371.85 458.96 371.83 460.36 364.23 462.5 352.89 464.72 345.55 470.27 327.62 477.72 321.75 480.08 321.47 480.59 322.26 481.66 324.79 481.66 329.79 481.66 338.99 478.95 356.86 471.64 365.66 469.01 368.88 465.73 371.85 459.66 371.85ZM335.09 369.49C334.37 368.4 333.02 365.22 333.02 359.02 333.02 350.4 338.17 321.06 354.22 318.07 349.1 344.39 347.21 352.59 343.83 359.22 340.18 366.51 336.61 368.97 335.1 369.49ZM120.16 362.04C115.72 368.57 112.13 369.08 111.13 369.08 111.08 369.08 111.03 369.08 110.99 369.08 110.58 368.49 109.19 365.97 109.19 358.85 109.19 347.97 114.57 318.29 131.84 317.66L129.11 332.26C126.39 348.24 123.77 357.07 120.34 361.77L120.15 362.04Z" fill="url(#linear-gradient)"/><g><path d="M84.08 280.63C85.29 276.31 81.14 271.29 74.74 271.46L71.45 271.46C64.53 271.29 59.52 275.44 59 280.45 58.65 283.56 57.96 288.41 56.23 297.4L48.96 336.32C44.29 360.36 39.79 379.21 27.69 379.21 27.69 379.21 27.86 379.21 27.34 379.04 20.59 378.35 13.67 380.08 11.77 384.57 9.87 388.55 14.02 393.56 19.38 394.43 20.59 394.6 22.67 394.78 24.4 394.78 36.16 394.78 48.27 392.36 56.05 384.75 64.87 375.76 67.12 365.03 70.75 347.22 72.13 339.78 73.69 332 75.07 324.39 76.45 317.13 77.84 309.17 79.22 301.91 80.26 296.55 82.33 286.17 84.06 280.63Z" fill="#FFFFFF"/><path d="M157.94 298.79 155.17 299.83C150.15 297.93 144.79 296.2 136.66 296.2 120.57 296.2 110.54 302.77 106.39 305.89 81.14 325.95 76.47 357.43 76.47 365.39 76.47 385.11 90.65 394.45 105.01 394.45 118.5 394.45 127.67 383.9 134.76 374.21 134.07 377.84 133.55 381.82 133.38 384.76 133.03 389.08 138.22 392.72 144.28 392.54 150.16 392.37 155.87 389.25 155.87 384.93 155.87 379.91 157.25 367.98 159.68 353.8L162.79 336.85C165.73 320.94 167.63 312.12 168.84 306.41 169.71 301.74 164.17 296.9 157.94 298.8ZM140.3 334.08C137.36 351.38 134.42 361.41 129.75 367.81 123.87 376.46 117.47 379.23 112.45 379.23 103.8 379.23 100.52 370.76 100.52 358.99 100.52 344.81 107.44 307.79 133.73 307.79 137.88 307.79 141.69 309 144.8 310.04L140.3 334.08Z" fill="#FFFFFF"/><path d="M278.33 295.68C267.61 295.68 260.34 301.73 258.44 303.64 254.98 307.1 251.69 311.42 249.1 315.4 247.54 306.75 242.35 295.68 228 295.68 217.45 295.68 210.01 301.73 208.28 303.64 206.55 305.37 204.99 306.93 203.78 308.66 203.95 307.79 204.13 306.93 204.3 306.24 205.34 301.22 198.25 298.11 192.54 298.98 191.85 298.98 190.81 299.15 190.29 299.33 189.94 299.33 189.77 299.5 189.25 299.5 188.56 299.5 187.86 299.5 187.35 299.67 181.3 300.71 179.22 305.03 179.39 309.53 179.56 312.82 179.22 317.49 177.83 324.75 176.27 333.92 174.54 343.95 172.82 353.46 171.95 358.48 171.09 363.32 170.22 367.99L170.39 367.82C170.22 368.34 169.87 369.89 169.7 370.41 168.66 376.12 167.97 379.4 166.93 383.38 166.07 387.53 170.56 392.03 176.44 391.86L177.82 391.86C184.57 391.86 190.62 387.88 190.97 382.69 192.01 371.62 196.33 344.29 200.14 332.7 205.5 318.86 214.15 310.39 222.11 310.39 226.26 310.39 226.43 313.5 226.43 321.46 226.43 325.78 225.22 334.61 223.32 345.33 222.63 348.96 221.94 353.46 221.24 357.26 218.99 369.89 217.61 377.67 216.05 383.03 215.01 387.53 220.2 391.85 226.6 391.85 233.35 391.85 239.57 388.04 240.09 382.86 240.96 373.17 244.59 347.92 248.91 334.08 255.48 316.96 265.51 310.56 272.26 310.56 274.68 310.56 275.89 312.64 275.89 321.46 275.89 324.92 274.85 331.84 273.81 337.72 272.94 342.56 272.08 347.58 271.22 352.77 270.35 357.96 269.32 363.15 268.45 368.16 267.24 374.21 266.03 379.92 264.99 383.21 263.95 387.53 268.1 392.2 274.5 392.03L275.88 392.03C282.63 392.03 288.85 387.88 289.2 382.34 289.55 377.32 290.41 369.37 292.66 357.26 293.53 352.42 294.56 347.4 295.43 342.56 296.3 337.72 297.16 332.36 298.03 327.86 299.24 321.81 299.93 317.65 299.93 313.68 299.93 297.94 284.88 295.69 278.31 295.69Z" fill="#FFFFFF"/><path d="M393.01 294.12C393.18 292.74 393.53 291.35 393.7 290.14 394.05 287.89 394.39 285.99 394.74 284.26 395.26 281.32 395.43 278.9 396.12 277 397.16 272.16 390.24 269.22 383.49 270.43 382.8 270.6 381.59 270.78 381.07 270.95 374.84 271.81 371.38 276.48 371.56 280.98 371.91 284.61 371.21 289.45 369.66 297.58 367.07 297.06 363.95 296.54 359.98 296.54 343.38 296.54 327.98 304.67 318.29 316.43 302.72 336.15 300.3 360.19 300.3 364.86 300.3 384.58 313.79 394.44 329.36 394.44 342.16 394.44 349.94 385.96 356.34 377.14 355.47 381.98 355.65 381.46 355.47 383.19 354.78 388.38 360.83 392.53 367.4 392.53 373.97 392.36 378.3 388.03 378.47 383.36 378.47 375.92 380.37 364.85 381.93 355.69 382.28 354.13 382.45 352.75 382.62 351.19L391.96 299.3C392.31 297.4 392.65 295.67 393 294.11ZM354.09 363.82C348.04 375.93 340.77 379.73 335.93 379.73 328.49 379.73 324.34 371.08 324.34 359.15 324.34 348.25 330.91 307.95 358.24 307.95 361.35 307.95 364.12 308.64 367.41 309.51 360.66 344.45 358.59 355 354.09 363.82Z" fill="#FFFFFF"/><path d="M417.92 288.76C427.95 288.76 433.14 279.94 433.14 274.23 433.14 268.52 427.61 265.41 421.55 265.41 410.83 265.41 405.98 274.23 405.98 279.59 405.98 285.99 412.03 288.76 417.91 288.76Z" fill="#FFFFFF"/><path d="M424.32 322.14C425.36 316.43 426.22 312.28 426.91 309.17 426.91 308.3 427.08 307.09 427.26 306.4 427.61 301.9 422.59 297.58 416.71 298.79 414.81 299.14 413.08 299.48 410.66 299.83 404.09 300.18 402.18 305.19 402.36 309.34 402.53 315.57 400.98 326.81 396.83 349.64L393.89 366.59C392.68 373.68 391.47 378.52 390.6 382.16 390.6 382.51 390.43 382.85 390.43 383.02 389.91 387.34 394.24 392.19 399.77 392.01L401.15 392.01C407.72 392.01 413.95 388.55 414.3 383.53 414.82 377.65 416.2 367.44 419.32 350.15L424.34 322.13Z" fill="#FFFFFF"/><path d="M491.26 296.19C479.5 296.19 473.1 300.51 471.02 302.07 467.04 305.01 463.76 308.99 460.99 312.97 461.51 310.72 462.03 308.47 462.55 306.05 462.9 301.55 457.19 297.92 451.13 298.96 449.4 299.31 447.33 299.65 445.08 299.83 439.72 300.52 437.64 305.02 437.47 308.3 437.64 311.93 437.47 317.64 436.09 324.73 436.09 325.25 436.09 326.29 435.57 327.32 435.05 330.43 434.53 332.85 434.19 335.28 433.67 338.22 433.32 341.33 432.63 344.97L421.73 401.18 421.9 401.01C421.73 401.53 421.73 402.22 421.55 402.74 421.2 403.6 421.03 404.3 421.03 404.47 420.86 406.37 420.34 408.28 419.99 410.18 418.61 416.75 417.22 423.5 415.84 428.69 414.98 432.84 420.51 436.65 426.22 436.65L427.43 436.65C434.87 437 439.88 432.67 440.4 427.14 440.75 424.03 441.26 419.18 442.3 413.48 442.99 410.02 443.69 406.56 444.38 402.93 445.07 399.47 445.76 396.53 446.28 393.07 451.47 394.11 455.62 394.11 458.91 394.11 473.44 394.11 486.24 388.23 495.58 378.89 509.25 365.4 517.37 342.57 517.37 324.92 517.37 306.24 507.17 296.21 491.25 296.21ZM480.71 372.12C477.6 375.92 471.72 381.98 460.99 381.98 455.63 381.98 451.65 380.08 448.36 378.35L448.88 378.35C448.88 376.79 449.05 375.93 449.57 374.89 450.95 367.45 453.55 352.41 456.49 342.72 462.54 323.18 472.4 311.59 481.57 311.59 489.7 311.59 492.99 320.06 492.99 329.92 492.99 340.3 490.05 360.88 480.71 372.12Z" fill="#FFFFFF"/></g><g><path d="M417.39 169.45C412.21 158.88 402.7 126.2 393.08 93.81 388.33 77.81 385.02 59.11 379.31 48.61 358.26 9.91 323.58-2.17 290.77 0.31 257.95 2.79 220.18 33.75 215.54 77.4 220.8 63.16 231.92 35.62 280.25 45.82 308.11 51.7 324.83 121.98 326.69 129.1 328.55 136.22 336 163.64 357.97 167.55 381.09 171.67 396.72 169.44 417.4 169.44Z" fill="url(#linear-gradient-2)"/><path d="M307.49 167.42C307.49 167.42 226.13 172.42 215.53 89.05 215.27 84.73 214.95 80.8 215.62 77.14 218.33 62.47 228.47 52.97 239.7 47.67 251.52 42.09 265.78 41.33 269.85 41.93 269.85 41.93 299.49 47.71 307.37 72.91 275.41 71.26 255.54 105.54 257.65 123.65 263.33 172.25 307.48 167.42 307.48 167.42Z" fill="url(#linear-gradient-3)"/><path d="M339.05 77.52C339.05 77.52 352.45 121.67 362.45 138.81 369.37 150.67 393.43 166.16 408.58 169.54 375.7 169.44 343.89 174.66 333.54 145.35 323.18 116.04 315.23 57.15 269.86 41.93 298.95 37.82 326.87 49.84 339.06 77.52Z" fill="url(#linear-gradient-4)"/><path d="M253.2 43.73C253.2 43.73 224.27 92.33 258.39 129.21 258.39 129.21 252.68 106.6 275.36 85.44 282.48 78.8 293.22 72.45 306.91 73.14 297.18 50.19 281.39 43.07 269.18 41.85 260.01 40.93 253.2 43.72 253.2 43.72Z" fill="url(#linear-gradient-5)"/><path d="M263.82 127.26C264.9 125.65 271.82 120.5 276.3 130.7 282.76 145.41 288.56 167.79 316.46 160.63 302.68 170.35 282.98 162.95 275.4 154.88 260.51 139.04 262.74 128.87 263.82 127.26Z" fill="url(#linear-gradient-6)"/><path d="M250.69 159.82C234.57 153.73 222.39 152.68 217.9 153.9 220.03 156.83 220.85 160.39 220.85 160.39 220.85 160.39 210.91 151.87 199.9 154.35 188.89 156.84 188.89 166.07 172.21 160.39 155.52 154.71 149.49 158.26 146.29 167.49 157.3 162.87 163.33 166.78 173.98 174.24 184.63 181.7 192.8 178.86 216.58 176.02 216.58 176.02 235.01 180.8 244.91 190.15 262.53 206.81 261.22 217.44 259.89 219.95 279.4 214.82 300.29 192.08 314.01 168.79 303.14 171.74 268.79 171.82 250.68 159.82Z" fill="url(#linear-gradient-7)"/><path d="M240.15 186.36C231.61 179.04 206.6 176.16 198.32 186.93 193.93 192.63 189.44 200.07 198.32 213.56 198.32 213.56 186.96 213.56 181.63 213.56 176.3 213.56 174.53 216.76 174.17 219.95 250.85 219.95 260.08 219.95 260.08 219.95 260.08 219.95 265.02 203.6 240.14 186.36Z" fill="url(#linear-gradient-8)"/><path d="M253.64 156.56C240.78 150.05 228.55 136.87 221.26 122.4 218.19 120.75 214.95 118.62 212.33 116.01 206.65 110.33 204.08 106.52 199.55 97.55 196.01 90.55 194.93 86.19 194.93 86.19 194.93 86.19 188.83 91.71 188.18 100.75 172.91 104.66 149.84 126.86 150.9 140.79 162.97 152.58 184.27 155.78 207.7 147.97 219.06 150.1 220.48 160.4 220.48 160.4 220.48 160.4 210.54 151.88 199.53 154.36 188.52 156.85 188.52 166.08 171.84 160.4 155.15 154.72 149.12 158.27 145.92 167.5 156.93 162.88 162.96 166.79 173.61 174.25 184.26 181.71 192.43 178.87 216.21 176.03 216.21 176.03 230.44 178.79 241.09 187.09 264.68 205.47 260.06 219.97 260.06 219.97 260.06 219.97 288.17 213 314 168.81 290.03 171.62 270.97 165.37 253.61 156.58Z" fill="url(#linear-gradient-9)"/><path d="M217.13 176.04C217.13 176.04 275.36 173.92 275.35 212.7 275.35 212.7 264.89 219.81 259.9 219.94 262.91 208.23 251.63 194.91 240.89 186.9 231.79 180.11 221.72 177.71 217.13 176.04" fill="url(#linear-gradient-10)"/><path d="M145.94 167.49C145.94 167.49 150.02 161.63 158.01 161.45 166 161.27 179.07 170.56 188.47 163.77 197.86 156.98 206.22 154.33 220.49 160.39 216.08 157.43 211.61 153.97 202.14 153.97 193.16 153.97 188.74 163.7 178.6 162.05 170.17 160.68 164.13 156.84 156.25 157.8 147.71 158.84 145.93 167.49 145.93 167.49Z" fill="url(#linear-gradient-11)"/><ellipse cx="176.79" cy="122.94" rx="7.8" ry="7.45" fill="#FFFFFF"/><circle cx="176.79" cy="122.94" r="3.61" fill="#831F5F"/><path d="M221.28 122.24C217.51 120.1 212.44 116.77 209.36 112.88 205.58 108.1 203.54 105.43 199.71 97.85 196.72 91.93 194.94 86.19 194.94 86.19 194.94 86.19 188.26 92.47 188.26 100.79 194 112.05 213.13 120.1 221.81 123.27 221.64 122.93 221.45 122.59 221.28 122.24Z" fill="url(#linear-gradient-12)"/></g></svg>