<svg viewBox="0 0 223.91 125.44" xmlns="http://www.w3.org/2000/svg" xmlns:xlink="http://www.w3.org/1999/xlink" id="Layer_1" overflow="hidden"><defs><linearGradient x1="16.51" y1="-11.16" x2="143.11" y2="83.9" gradientUnits="userSpaceOnUse" id="linear-gradient"><stop offset="0" stop-color="#FFFFFF"/><stop offset="0.09" stop-color="#EAEED8"/><stop offset="0.38" stop-color="#AEBE67"/><stop offset="0.51" stop-color="#96AB3B"/></linearGradient></defs><g><rect x="0" y="8.97" rx="54.66" ry="54.66" width="220.15" height="116.47" fill="#231F20" opacity="0.56"/><rect x="3.26" y="0.5" rx="54.66" ry="54.66" width="220.15" height="116.47" stroke="#2A4C24" stroke-miterlimit="10" fill="#96AB3B"/><path d="M178.43 4.21C124.78 7.21 81.88 12.86 53.65 42.33 35.52 61.26 32.17 83.61 37.59 109.04 17.83 100.57 11.55 84.09 9 76.57 6.02 67.8 1.17 30.98 27.88 13.56 42.37 4.11 52.59 4.74 52.59 4.74 52.59 4.74 133.78 4.21 178.43 4.21Z" fill="url(#linear-gradient)" opacity="0.78"/></g><g><path d="M141.62 91.08C141.42 91.44 141.11 91.77 140.7 92.07 140.34 92.12 139.94 92.27 139.48 92.53 121.01 93.55 108.95 94.26 103.3 94.67L102.92 94.67C102.56 94.67 102.23 94.62 101.93 94.52 101.47 94.27 101.14 93.96 100.94 93.6L100.79 92.99 100.56 92.3C100.46 89.91 100.23 86.27 99.87 81.38 99.87 80.87 99.97 80.44 100.18 80.08 100.43 79.67 100.74 79.37 101.1 79.16L102.32 78.63C102.68 78.58 103.8 78.53 105.68 78.48L106.37 78.4 107.13 78.4C107.74 78.35 108.27 78.32 108.73 78.32 110.1 78.22 111.43 78.14 112.7 78.09L112.7 56.79C112.7 56.84 112.67 56.89 112.62 56.94L109.95 59.61C109.49 60.07 108.88 60.58 108.12 61.14L106.9 62.13 104.69 63.43 103.7 63.66 103.32 63.74 103.09 63.74C102.89 63.79 102.76 63.82 102.71 63.82L102.4 63.74 102.17 63.74 101.79 63.66C101.48 63.61 101.18 63.48 100.87 63.28 100.67 63.13 100.46 62.97 100.26 62.82L100.11 62.67 100.03 62.59C99.67 62.28 99.37 61.98 99.11 61.67L98.58 60.83 98.05 59.99 97.82 59.61 97.51 59.08 97.28 58.7 97.05 58.39 95.52 54.8 95.37 54.04C95.32 53.84 95.29 53.63 95.29 53.43 95.29 53.23 95.32 53.02 95.37 52.82 95.42 52.57 95.6 52.18 95.9 51.68 96.31 51.17 96.71 50.79 97.12 50.54L101.24 47.41C101.65 47 102.05 46.7 102.46 46.49 102.77 46.29 102.99 46.11 103.15 45.96L103.38 45.73 103.61 45.5 105.98 43.36 110.18 39.16C110.54 38.8 110.82 38.45 111.02 38.09L112.32 36.26 112.7 35.42C112.9 35.06 113.06 34.63 113.16 34.12L113.39 33.2 113.47 32.89 113.55 32.58 114.08 30.06 114.16 29.68 114.24 29.37 114.32 29.14 114.4 28.91C114.5 28.5 114.65 28.2 114.86 27.99 115.06 27.68 115.32 27.43 115.62 27.23 115.87 26.98 116.2 26.77 116.61 26.62L117.3 26.47 117.53 26.39 117.76 26.39 117.99 26.31 120.2 26.16C120.61 26.16 120.84 26.13 120.89 26.08 120.99 26.08 121.17 26.05 121.42 26L121.88 26 122.41 25.92 123.86 25.92 124.24 26 124.7 26 125.23 26.08 125.61 26.16 125.92 26.16 126.38 26.24 126.76 26.32 127.07 26.4 127.3 26.48 127.45 26.56C127.86 26.76 128.11 26.97 128.21 27.17 128.31 27.22 128.46 27.35 128.67 27.55L128.75 27.7 128.83 27.93C129.03 28.13 129.14 28.46 129.14 28.92 129.19 28.97 129.22 29.12 129.22 29.38L129.22 30.07 129.3 30.3 129.3 30.53C129.35 30.63 129.38 30.71 129.38 30.76L129.46 39 129.38 51.29 129.3 51.75 129.3 52.21 129.22 52.82 129.22 62.21 129.14 63.28 129.22 75.8 129.3 76.26 129.3 76.57 129.38 76.95 138.54 76.49C138.69 76.44 138.85 76.41 139 76.41 139.36 76.41 139.66 76.51 139.92 76.72 140.07 76.77 140.23 76.85 140.38 76.95 140.58 77.1 140.76 77.31 140.91 77.56L141.06 78.17 141.29 78.86C141.39 81.25 141.62 84.89 141.98 89.78 141.98 90.29 141.88 90.72 141.67 91.08Z" fill="#334A2B"/><path d="M138.97 88.55C138.77 88.91 138.46 89.24 138.05 89.54 137.69 89.59 137.29 89.74 136.83 90 118.36 91.02 106.3 91.73 100.65 92.14L100.27 92.14C99.91 92.14 99.58 92.09 99.28 91.99 98.82 91.74 98.49 91.43 98.29 91.07L98.14 90.46 97.91 89.77C97.81 87.38 97.58 83.74 97.22 78.85 97.22 78.34 97.32 77.91 97.53 77.55 97.78 77.14 98.09 76.84 98.45 76.63L99.67 76.1C100.03 76.05 101.15 76 103.03 75.95L103.72 75.87 104.48 75.87C105.09 75.82 105.62 75.79 106.08 75.79 107.45 75.69 108.78 75.61 110.05 75.56L110.05 54.26C110.05 54.31 110.02 54.36 109.97 54.41L107.3 57.08C106.84 57.54 106.23 58.05 105.47 58.61L104.25 59.6 102.04 60.9 101.05 61.13 100.67 61.21 100.44 61.21C100.24 61.26 100.11 61.29 100.06 61.29L99.75 61.21 99.52 61.21 99.14 61.13C98.83 61.08 98.53 60.95 98.22 60.75 98.02 60.6 97.81 60.44 97.61 60.29L97.46 60.14 97.38 60.06C97.02 59.75 96.72 59.45 96.46 59.14L95.93 58.3 95.4 57.46 95.17 57.08 94.86 56.55 94.63 56.17 94.4 55.86 92.87 52.27 92.72 51.51C92.67 51.31 92.64 51.1 92.64 50.9 92.64 50.7 92.67 50.49 92.72 50.29 92.77 50.04 92.95 49.65 93.25 49.15 93.66 48.64 94.06 48.26 94.47 48.01L98.59 44.88C99 44.47 99.4 44.17 99.81 43.96 100.12 43.76 100.34 43.58 100.5 43.43L100.73 43.2 100.96 42.97 103.33 40.83 107.53 36.63C107.89 36.27 108.17 35.92 108.37 35.56L109.67 33.73 110.05 32.89C110.25 32.53 110.41 32.1 110.51 31.59L110.74 30.67 110.82 30.36 110.9 30.05 111.43 27.53 111.51 27.15 111.59 26.84 111.67 26.61 111.75 26.38C111.85 25.97 112 25.67 112.21 25.46 112.41 25.15 112.67 24.9 112.97 24.7 113.22 24.45 113.55 24.24 113.96 24.09L114.65 23.94 114.88 23.86 115.11 23.86 115.34 23.78 117.55 23.63C117.96 23.63 118.19 23.6 118.24 23.55 118.34 23.55 118.52 23.52 118.77 23.47L119.23 23.47 119.76 23.39 121.21 23.39 121.59 23.47 122.05 23.47 122.58 23.55 122.96 23.63 123.27 23.63 123.73 23.71 124.11 23.79 124.42 23.87 124.65 23.95 124.8 24.03C125.21 24.23 125.46 24.44 125.56 24.64 125.66 24.69 125.81 24.82 126.02 25.02L126.1 25.17 126.18 25.4C126.38 25.6 126.49 25.93 126.49 26.39 126.54 26.44 126.57 26.59 126.57 26.85L126.57 27.54 126.65 27.77 126.65 28C126.7 28.1 126.73 28.18 126.73 28.23L126.81 36.47 126.73 48.76 126.65 49.22 126.65 49.68 126.57 50.29 126.57 59.68 126.49 60.75 126.57 73.27 126.65 73.73 126.65 74.04 126.73 74.42 135.89 73.96C136.04 73.91 136.2 73.88 136.35 73.88 136.71 73.88 137.01 73.98 137.27 74.19 137.42 74.24 137.58 74.32 137.73 74.42 137.93 74.57 138.11 74.78 138.26 75.03L138.41 75.64 138.64 76.33C138.74 78.72 138.97 82.36 139.33 87.25 139.33 87.76 139.23 88.19 139.02 88.55Z" fill="#FFFFFF"/></g></svg>